<?xml version="1.0" encoding="UTF-8" standalone="no"?><svg xmlns="http://www.w3.org/2000/svg" xmlns:xlink="http://www.w3.org/1999/xlink" contentStyleType="text/css" height="1002px" preserveAspectRatio="none" style="width:571px;height:1002px;background:#FFFFFF;" version="1.1" viewBox="0 0 571 1002" width="571px" zoomAndPan="magnify"><defs/><g><!--MD5=[8c7d7abc12e214c3cc12c9ab70edee11]
class Coordinate--><g id="elem_Coordinate"><rect codeLine="2" fill="#F1F1F1" height="188.875" id="Coordinate" rx="2.5" ry="2.5" style="stroke:#181818;stroke-width:0.5;" width="234" x="53" y="807"/><ellipse cx="130.75" cy="823" fill="#ADD1B2" rx="11" ry="11" style="stroke:#181818;stroke-width:1.0;"/><path d="M133.5156,818.875 Q133.6719,818.6563 133.8594,818.5469 Q134.0469,818.4375 134.2656,818.4375 Q134.6406,818.4375 134.875,818.7031 Q135.1094,818.9531 135.1094,819.5625 L135.1094,821.0156 Q135.1094,821.625 134.875,821.8906 Q134.6406,822.1563 134.2656,822.1563 Q133.9219,822.1563 133.7188,821.9531 Q133.5156,821.7656 133.4063,821.25 Q133.3594,820.8906 133.1719,820.7031 Q132.8438,820.3281 132.2344,820.1094 Q131.625,819.8906 131,819.8906 Q130.2344,819.8906 129.5938,820.2188 Q128.9688,820.5469 128.4688,821.2969 Q127.9844,822.0469 127.9844,823.0781 L127.9844,824.1719 Q127.9844,825.4063 128.875,826.2344 Q129.7656,827.0469 131.3594,827.0469 Q132.2969,827.0469 132.9531,826.7969 Q133.3438,826.6406 133.7656,826.2031 Q134.0313,825.9375 134.1719,825.8594 Q134.3281,825.7813 134.5313,825.7813 Q134.8594,825.7813 135.1094,826.0469 Q135.375,826.2969 135.375,826.6406 Q135.375,826.9844 135.0313,827.3906 Q134.5313,827.9688 133.7344,828.2969 Q132.6563,828.75 131.3594,828.75 Q129.8438,828.75 128.6406,828.125 Q127.6563,827.625 126.9688,826.5625 Q126.2813,825.4844 126.2813,824.2031 L126.2813,823.0469 Q126.2813,821.7188 126.8906,820.5781 Q127.5156,819.4219 128.6094,818.8125 Q129.7031,818.1875 130.9375,818.1875 Q131.6719,818.1875 132.3125,818.3594 Q132.9688,818.5156 133.5156,818.875 Z " fill="#000000"/><text fill="#000000" font-family="sans-serif" font-size="14" lengthAdjust="spacing" textLength="70" x="151.25" y="828.7285">Coordinate</text><line style="stroke:#181818;stroke-width:0.5;" x1="54" x2="286" y1="839" y2="839"/><rect fill="none" height="6" style="stroke:#C82930;stroke-width:1.0;" width="6" x="61" y="850.3047"/><text fill="#000000" font-family="sans-serif" font-size="14" lengthAdjust="spacing" textLength="33" x="73" y="857.5332">x : int</text><rect fill="none" height="6" style="stroke:#C82930;stroke-width:1.0;" width="6" x="61" y="867.9141"/><text fill="#000000" font-family="sans-serif" font-size="14" lengthAdjust="spacing" textLength="34" x="73" y="875.1426">y : int</text><line style="stroke:#181818;stroke-width:0.5;" x1="54" x2="286" y1="882.2188" y2="882.2188"/><ellipse cx="64" cy="896.5234" fill="#84BE84" rx="3" ry="3" style="stroke:#038048;stroke-width:1.0;"/><text fill="#000000" font-family="sans-serif" font-size="14" lengthAdjust="spacing" textLength="155" x="73" y="900.752">Coordinate(x : int, y : int)</text><ellipse cx="64" cy="914.1328" fill="#84BE84" rx="3" ry="3" style="stroke:#038048;stroke-width:1.0;"/><text fill="#000000" font-family="sans-serif" font-size="14" lengthAdjust="spacing" textLength="65" x="73" y="918.3613">getX() : int</text><ellipse cx="64" cy="931.7422" fill="#84BE84" rx="3" ry="3" style="stroke:#038048;stroke-width:1.0;"/><text fill="#000000" font-family="sans-serif" font-size="14" lengthAdjust="spacing" textLength="66" x="73" y="935.9707">getY() : int</text><ellipse cx="64" cy="949.3516" fill="#84BE84" rx="3" ry="3" style="stroke:#038048;stroke-width:1.0;"/><text fill="#000000" font-family="sans-serif" font-size="14" lengthAdjust="spacing" textLength="133" x="73" y="953.5801">updateX(x : int) : void</text><ellipse cx="64" cy="966.9609" fill="#84BE84" rx="3" ry="3" style="stroke:#038048;stroke-width:1.0;"/><text fill="#000000" font-family="sans-serif" font-size="14" lengthAdjust="spacing" textLength="135" x="73" y="971.1895">updateY(y : int) : void</text><ellipse cx="64" cy="984.5703" fill="#84BE84" rx="3" ry="3" style="stroke:#038048;stroke-width:1.0;"/><text fill="#000000" font-family="sans-serif" font-size="14" lengthAdjust="spacing" textLength="208" x="73" y="988.7988">updateXandY(x : int, y : int) : void</text></g><!--MD5=[be0c47551b585ad7c2a2e1b6357e10bd]
class AllPOIS--><g id="elem_AllPOIS"><rect codeLine="13" fill="#F1F1F1" height="153.6563" id="AllPOIS" rx="2.5" ry="2.5" style="stroke:#181818;stroke-width:0.5;" width="274" x="131" y="344"/><ellipse cx="240.25" cy="360" fill="#ADD1B2" rx="11" ry="11" style="stroke:#181818;stroke-width:1.0;"/><path d="M243.0156,355.875 Q243.1719,355.6563 243.3594,355.5469 Q243.5469,355.4375 243.7656,355.4375 Q244.1406,355.4375 244.375,355.7031 Q244.6094,355.9531 244.6094,356.5625 L244.6094,358.0156 Q244.6094,358.625 244.375,358.8906 Q244.1406,359.1563 243.7656,359.1563 Q243.4219,359.1563 243.2188,358.9531 Q243.0156,358.7656 242.9063,358.25 Q242.8594,357.8906 242.6719,357.7031 Q242.3438,357.3281 241.7344,357.1094 Q241.125,356.8906 240.5,356.8906 Q239.7344,356.8906 239.0938,357.2188 Q238.4688,357.5469 237.9688,358.2969 Q237.4844,359.0469 237.4844,360.0781 L237.4844,361.1719 Q237.4844,362.4063 238.375,363.2344 Q239.2656,364.0469 240.8594,364.0469 Q241.7969,364.0469 242.4531,363.7969 Q242.8438,363.6406 243.2656,363.2031 Q243.5313,362.9375 243.6719,362.8594 Q243.8281,362.7813 244.0313,362.7813 Q244.3594,362.7813 244.6094,363.0469 Q244.875,363.2969 244.875,363.6406 Q244.875,363.9844 244.5313,364.3906 Q244.0313,364.9688 243.2344,365.2969 Q242.1563,365.75 240.8594,365.75 Q239.3438,365.75 238.1406,365.125 Q237.1563,364.625 236.4688,363.5625 Q235.7813,362.4844 235.7813,361.2031 L235.7813,360.0469 Q235.7813,358.7188 236.3906,357.5781 Q237.0156,356.4219 238.1094,355.8125 Q239.2031,355.1875 240.4375,355.1875 Q241.1719,355.1875 241.8125,355.3594 Q242.4688,355.5156 243.0156,355.875 Z " fill="#000000"/><text fill="#000000" font-family="sans-serif" font-size="14" lengthAdjust="spacing" textLength="47" x="260.75" y="365.7285">AllPOIS</text><line style="stroke:#181818;stroke-width:0.5;" x1="132" x2="404" y1="376" y2="376"/><rect fill="none" height="6" style="stroke:#C82930;stroke-width:1.0;" width="6" x="139" y="387.3047"/><text fill="#000000" font-family="sans-serif" font-size="14" lengthAdjust="spacing" textLength="169" x="151" y="394.5332">creekLocations : List&lt;POI&gt;</text><rect fill="none" height="6" style="stroke:#C82930;stroke-width:1.0;" width="6" x="139" y="404.9141"/><text fill="#000000" font-family="sans-serif" font-size="14" lengthAdjust="spacing" textLength="129" x="151" y="412.1426">emergencySite : POI</text><line style="stroke:#181818;stroke-width:0.5;" x1="132" x2="404" y1="419.2188" y2="419.2188"/><ellipse cx="142" cy="433.5234" fill="#84BE84" rx="3" ry="3" style="stroke:#038048;stroke-width:1.0;"/><text fill="#000000" font-family="sans-serif" font-size="14" lengthAdjust="spacing" textLength="226" x="151" y="437.752">AllPOIS(creekLocations : List&lt;POI&gt;)</text><ellipse cx="142" cy="451.1328" fill="#84BE84" rx="3" ry="3" style="stroke:#038048;stroke-width:1.0;"/><text fill="#000000" font-family="sans-serif" font-size="14" lengthAdjust="spacing" textLength="248" x="151" y="455.3613">addPoi(poi : POI, type : POIType) : void</text><ellipse cx="142" cy="468.7422" fill="#84BE84" rx="3" ry="3" style="stroke:#038048;stroke-width:1.0;"/><text fill="#000000" font-family="sans-serif" font-size="14" lengthAdjust="spacing" textLength="160" x="151" y="472.9707">getEmergencySite() : POI</text><ellipse cx="142" cy="486.3516" fill="#84BE84" rx="3" ry="3" style="stroke:#038048;stroke-width:1.0;"/><text fill="#000000" font-family="sans-serif" font-size="14" lengthAdjust="spacing" textLength="148" x="151" y="490.5801">getCreeks() : List&lt;POI&gt;</text></g><!--MD5=[d7a052092efb8e821a036db840caf12e]
class ClosestCreek--><g id="elem_ClosestCreek"><rect codeLine="22" fill="#F1F1F1" height="118.4375" id="ClosestCreek" rx="2.5" ry="2.5" style="stroke:#181818;stroke-width:0.5;" width="226" x="7" y="86.5"/><ellipse cx="73.25" cy="102.5" fill="#ADD1B2" rx="11" ry="11" style="stroke:#181818;stroke-width:1.0;"/><path d="M76.0156,98.375 Q76.1719,98.1563 76.3594,98.0469 Q76.5469,97.9375 76.7656,97.9375 Q77.1406,97.9375 77.375,98.2031 Q77.6094,98.4531 77.6094,99.0625 L77.6094,100.5156 Q77.6094,101.125 77.375,101.3906 Q77.1406,101.6563 76.7656,101.6563 Q76.4219,101.6563 76.2188,101.4531 Q76.0156,101.2656 75.9063,100.75 Q75.8594,100.3906 75.6719,100.2031 Q75.3438,99.8281 74.7344,99.6094 Q74.125,99.3906 73.5,99.3906 Q72.7344,99.3906 72.0938,99.7188 Q71.4688,100.0469 70.9688,100.7969 Q70.4844,101.5469 70.4844,102.5781 L70.4844,103.6719 Q70.4844,104.9063 71.375,105.7344 Q72.2656,106.5469 73.8594,106.5469 Q74.7969,106.5469 75.4531,106.2969 Q75.8438,106.1406 76.2656,105.7031 Q76.5313,105.4375 76.6719,105.3594 Q76.8281,105.2813 77.0313,105.2813 Q77.3594,105.2813 77.6094,105.5469 Q77.875,105.7969 77.875,106.1406 Q77.875,106.4844 77.5313,106.8906 Q77.0313,107.4688 76.2344,107.7969 Q75.1563,108.25 73.8594,108.25 Q72.3438,108.25 71.1406,107.625 Q70.1563,107.125 69.4688,106.0625 Q68.7813,104.9844 68.7813,103.7031 L68.7813,102.5469 Q68.7813,101.2188 69.3906,100.0781 Q70.0156,98.9219 71.1094,98.3125 Q72.2031,97.6875 73.4375,97.6875 Q74.1719,97.6875 74.8125,97.8594 Q75.4688,98.0156 76.0156,98.375 Z " fill="#000000"/><text fill="#000000" font-family="sans-serif" font-size="14" lengthAdjust="spacing" textLength="85" x="93.75" y="108.2285">ClosestCreek</text><line style="stroke:#181818;stroke-width:0.5;" x1="8" x2="232" y1="118.5" y2="118.5"/><rect fill="none" height="6" style="stroke:#C82930;stroke-width:1.0;" width="6" x="15" y="129.8047"/><text fill="#000000" font-family="sans-serif" font-size="14" lengthAdjust="spacing" textLength="105" x="27" y="137.0332">allPOIS : AllPOIS</text><rect fill="none" height="6" style="stroke:#C82930;stroke-width:1.0;" width="6" x="15" y="147.4141"/><text fill="#000000" font-family="sans-serif" font-size="14" lengthAdjust="spacing" textLength="117" x="27" y="154.6426">creekClosest : POI</text><line style="stroke:#181818;stroke-width:0.5;" x1="8" x2="232" y1="161.7188" y2="161.7188"/><ellipse cx="18" cy="176.0234" fill="#84BE84" rx="3" ry="3" style="stroke:#038048;stroke-width:1.0;"/><text fill="#000000" font-family="sans-serif" font-size="14" lengthAdjust="spacing" textLength="200" x="27" y="180.252">ClosestCreek(allPOIS : AllPOIS)</text><ellipse cx="18" cy="193.6328" fill="#84BE84" rx="3" ry="3" style="stroke:#038048;stroke-width:1.0;"/><text fill="#000000" font-family="sans-serif" font-size="14" lengthAdjust="spacing" textLength="153" x="27" y="197.8613">findClosestCreek() : POI</text></g><!--MD5=[50c0c5139c91e986ea4f68824f22338b]
class POI--><g id="elem_POI"><rect codeLine="29" fill="#F1F1F1" height="188.875" id="POI" rx="2.5" ry="2.5" style="stroke:#181818;stroke-width:0.5;" width="378" x="79" y="558"/><ellipse cx="252.25" cy="574" fill="#ADD1B2" rx="11" ry="11" style="stroke:#181818;stroke-width:1.0;"/><path d="M255.0156,569.875 Q255.1719,569.6563 255.3594,569.5469 Q255.5469,569.4375 255.7656,569.4375 Q256.1406,569.4375 256.375,569.7031 Q256.6094,569.9531 256.6094,570.5625 L256.6094,572.0156 Q256.6094,572.625 256.375,572.8906 Q256.1406,573.1563 255.7656,573.1563 Q255.4219,573.1563 255.2188,572.9531 Q255.0156,572.7656 254.9063,572.25 Q254.8594,571.8906 254.6719,571.7031 Q254.3438,571.3281 253.7344,571.1094 Q253.125,570.8906 252.5,570.8906 Q251.7344,570.8906 251.0938,571.2188 Q250.4688,571.5469 249.9688,572.2969 Q249.4844,573.0469 249.4844,574.0781 L249.4844,575.1719 Q249.4844,576.4063 250.375,577.2344 Q251.2656,578.0469 252.8594,578.0469 Q253.7969,578.0469 254.4531,577.7969 Q254.8438,577.6406 255.2656,577.2031 Q255.5313,576.9375 255.6719,576.8594 Q255.8281,576.7813 256.0313,576.7813 Q256.3594,576.7813 256.6094,577.0469 Q256.875,577.2969 256.875,577.6406 Q256.875,577.9844 256.5313,578.3906 Q256.0313,578.9688 255.2344,579.2969 Q254.1563,579.75 252.8594,579.75 Q251.3438,579.75 250.1406,579.125 Q249.1563,578.625 248.4688,577.5625 Q247.7813,576.4844 247.7813,575.2031 L247.7813,574.0469 Q247.7813,572.7188 248.3906,571.5781 Q249.0156,570.4219 250.1094,569.8125 Q251.2031,569.1875 252.4375,569.1875 Q253.1719,569.1875 253.8125,569.3594 Q254.4688,569.5156 255.0156,569.875 Z " fill="#000000"/><text fill="#000000" font-family="sans-serif" font-size="14" lengthAdjust="spacing" textLength="23" x="272.75" y="579.7285">POI</text><line style="stroke:#181818;stroke-width:0.5;" x1="80" x2="456" y1="590" y2="590"/><rect fill="none" height="6" style="stroke:#C82930;stroke-width:1.0;" width="6" x="87" y="601.3047"/><text fill="#000000" font-family="sans-serif" font-size="14" lengthAdjust="spacing" textLength="149" x="99" y="608.5332">coordinate : Coordinate</text><rect fill="none" height="6" style="stroke:#C82930;stroke-width:1.0;" width="6" x="87" y="618.9141"/><text fill="#000000" font-family="sans-serif" font-size="14" lengthAdjust="spacing" textLength="60" x="99" y="626.1426">id : String</text><rect fill="none" height="6" style="stroke:#C82930;stroke-width:1.0;" width="6" x="87" y="636.5234"/><text fill="#000000" font-family="sans-serif" font-size="14" lengthAdjust="spacing" textLength="94" x="99" y="643.752">type : POIType</text><line style="stroke:#181818;stroke-width:0.5;" x1="80" x2="456" y1="650.8281" y2="650.8281"/><ellipse cx="90" cy="665.1328" fill="#84BE84" rx="3" ry="3" style="stroke:#038048;stroke-width:1.0;"/><text fill="#000000" font-family="sans-serif" font-size="14" lengthAdjust="spacing" textLength="352" x="99" y="669.3613">POI(coordinate : Coordinate, id : String, type : POIType)</text><ellipse cx="90" cy="682.7422" fill="#84BE84" rx="3" ry="3" style="stroke:#038048;stroke-width:1.0;"/><text fill="#000000" font-family="sans-serif" font-size="14" lengthAdjust="spacing" textLength="65" x="99" y="686.9707">getX() : int</text><ellipse cx="90" cy="700.3516" fill="#84BE84" rx="3" ry="3" style="stroke:#038048;stroke-width:1.0;"/><text fill="#000000" font-family="sans-serif" font-size="14" lengthAdjust="spacing" textLength="66" x="99" y="704.5801">getY() : int</text><ellipse cx="90" cy="717.9609" fill="#84BE84" rx="3" ry="3" style="stroke:#038048;stroke-width:1.0;"/><text fill="#000000" font-family="sans-serif" font-size="14" lengthAdjust="spacing" textLength="92" x="99" y="722.1895">getID() : String</text><ellipse cx="90" cy="735.5703" fill="#84BE84" rx="3" ry="3" style="stroke:#038048;stroke-width:1.0;"/><text fill="#000000" font-family="sans-serif" font-size="14" lengthAdjust="spacing" textLength="149" x="99" y="739.7988">getPoiType() : POIType</text></g><!--MD5=[285ab7d62d4066227885d174393fe1a8]
class ScanLine--><g id="elem_ScanLine"><rect codeLine="40" fill="#F1F1F1" height="276.9219" id="ScanLine" rx="2.5" ry="2.5" style="stroke:#181818;stroke-width:0.5;" width="296" x="268" y="7"/><ellipse cx="382.25" cy="23" fill="#ADD1B2" rx="11" ry="11" style="stroke:#181818;stroke-width:1.0;"/><path d="M385.0156,18.875 Q385.1719,18.6563 385.3594,18.5469 Q385.5469,18.4375 385.7656,18.4375 Q386.1406,18.4375 386.375,18.7031 Q386.6094,18.9531 386.6094,19.5625 L386.6094,21.0156 Q386.6094,21.625 386.375,21.8906 Q386.1406,22.1563 385.7656,22.1563 Q385.4219,22.1563 385.2188,21.9531 Q385.0156,21.7656 384.9063,21.25 Q384.8594,20.8906 384.6719,20.7031 Q384.3438,20.3281 383.7344,20.1094 Q383.125,19.8906 382.5,19.8906 Q381.7344,19.8906 381.0938,20.2188 Q380.4688,20.5469 379.9688,21.2969 Q379.4844,22.0469 379.4844,23.0781 L379.4844,24.1719 Q379.4844,25.4063 380.375,26.2344 Q381.2656,27.0469 382.8594,27.0469 Q383.7969,27.0469 384.4531,26.7969 Q384.8438,26.6406 385.2656,26.2031 Q385.5313,25.9375 385.6719,25.8594 Q385.8281,25.7813 386.0313,25.7813 Q386.3594,25.7813 386.6094,26.0469 Q386.875,26.2969 386.875,26.6406 Q386.875,26.9844 386.5313,27.3906 Q386.0313,27.9688 385.2344,28.2969 Q384.1563,28.75 382.8594,28.75 Q381.3438,28.75 380.1406,28.125 Q379.1563,27.625 378.4688,26.5625 Q377.7813,25.4844 377.7813,24.2031 L377.7813,23.0469 Q377.7813,21.7188 378.3906,20.5781 Q379.0156,19.4219 380.1094,18.8125 Q381.2031,18.1875 382.4375,18.1875 Q383.1719,18.1875 383.8125,18.3594 Q384.4688,18.5156 385.0156,18.875 Z " fill="#000000"/><text fill="#000000" font-family="sans-serif" font-size="14" lengthAdjust="spacing" textLength="59" x="402.75" y="28.7285">ScanLine</text><line style="stroke:#181818;stroke-width:0.5;" x1="269" x2="563" y1="39" y2="39"/><rect fill="none" height="6" style="stroke:#C82930;stroke-width:1.0;" width="6" x="276" y="50.3047"/><text fill="#000000" font-family="sans-serif" font-size="14" lengthAdjust="spacing" textLength="140" x="288" y="57.5332">reachedEnd : boolean</text><rect fill="none" height="6" style="stroke:#C82930;stroke-width:1.0;" width="6" x="276" y="67.9141"/><text fill="#000000" font-family="sans-serif" font-size="14" lengthAdjust="spacing" textLength="182" x="288" y="75.1426">currentState : ScanLineState</text><rect fill="none" height="6" style="stroke:#C82930;stroke-width:1.0;" width="6" x="276" y="85.5234"/><text fill="#000000" font-family="sans-serif" font-size="14" lengthAdjust="spacing" textLength="88" x="288" y="92.752">drone : Drone</text><rect fill="none" height="6" style="stroke:#C82930;stroke-width:1.0;" width="6" x="276" y="103.1328"/><text fill="#000000" font-family="sans-serif" font-size="14" lengthAdjust="spacing" textLength="105" x="288" y="110.3613">allPOIS : AllPOIS</text><rect fill="none" height="6" style="stroke:#C82930;stroke-width:1.0;" width="6" x="276" y="120.7422"/><text fill="#000000" font-family="sans-serif" font-size="14" lengthAdjust="spacing" textLength="114" x="288" y="127.9707">groundRange : int</text><rect fill="none" height="6" style="stroke:#C82930;stroke-width:1.0;" width="6" x="276" y="138.3516"/><text fill="#000000" font-family="sans-serif" font-size="14" lengthAdjust="spacing" textLength="121" x="288" y="145.5801">finalScan : boolean</text><line style="stroke:#181818;stroke-width:0.5;" x1="269" x2="563" y1="152.6563" y2="152.6563"/><ellipse cx="279" cy="166.9609" fill="#84BE84" rx="3" ry="3" style="stroke:#038048;stroke-width:1.0;"/><text fill="#000000" font-family="sans-serif" font-size="14" lengthAdjust="spacing" textLength="270" x="288" y="171.1895">ScanLine(drone : Drone, allPOIS : AllPOIS)</text><ellipse cx="279" cy="184.5703" fill="#84BE84" rx="3" ry="3" style="stroke:#038048;stroke-width:1.0;"/><text fill="#000000" font-family="sans-serif" font-size="14" lengthAdjust="spacing" textLength="162" x="288" y="188.7988">getNextDecision() : Action</text><ellipse cx="279" cy="202.1797" fill="#84BE84" rx="3" ry="3" style="stroke:#038048;stroke-width:1.0;"/><text fill="#000000" font-family="sans-serif" font-size="14" lengthAdjust="spacing" textLength="215" x="288" y="206.4082">react(response : Response) : void</text><ellipse cx="279" cy="219.7891" fill="#84BE84" rx="3" ry="3" style="stroke:#038048;stroke-width:1.0;"/><text fill="#000000" font-family="sans-serif" font-size="14" lengthAdjust="spacing" textLength="149" x="288" y="224.0176">getNextPhase() : Phase</text><ellipse cx="279" cy="237.3984" fill="#84BE84" rx="3" ry="3" style="stroke:#038048;stroke-width:1.0;"/><text fill="#000000" font-family="sans-serif" font-size="14" lengthAdjust="spacing" textLength="150" x="288" y="241.627">reachedEnd() : boolean</text><ellipse cx="279" cy="255.0078" fill="#84BE84" rx="3" ry="3" style="stroke:#038048;stroke-width:1.0;"/><text fill="#000000" font-family="sans-serif" font-size="14" lengthAdjust="spacing" textLength="114" x="288" y="259.2363">isFinal() : boolean</text><ellipse cx="279" cy="272.6172" fill="#84BE84" rx="3" ry="3" style="stroke:#038048;stroke-width:1.0;"/><text fill="#000000" font-family="sans-serif" font-size="14" lengthAdjust="spacing" textLength="136" x="288" y="276.8457">getAllPOIS() : AllPOIS</text></g><!--MD5=[5a03c33cd5e24e94f97c47a2d4ec401a]
class POIType--><g id="elem_POIType"><rect codeLine="56" fill="#F1F1F1" height="100.8281" id="POIType" rx="2.5" ry="2.5" style="stroke:#181818;stroke-width:0.5;" width="87" x="322.5" y="851"/><ellipse cx="337.5" cy="867" fill="#EB937F" rx="11" ry="11" style="stroke:#181818;stroke-width:1.0;"/><path d="M336.3594,867.7969 L336.3594,870.2969 L340.6875,870.2969 L340.6875,869.375 Q340.6875,868.7656 340.9219,868.5 Q341.1719,868.2344 341.5469,868.2344 Q341.9219,868.2344 342.1563,868.5 Q342.3906,868.7656 342.3906,869.375 L342.3906,872 L334.3906,872 Q333.7656,872 333.5,871.7656 Q333.25,871.5313 333.25,871.1406 Q333.25,870.7656 333.5156,870.5313 Q333.7813,870.2969 334.3906,870.2969 L334.6563,870.2969 L334.6563,863.6406 L334.3906,863.6406 Q333.7656,863.6406 333.5,863.4063 Q333.25,863.1719 333.25,862.7813 Q333.25,862.4063 333.5,862.1719 Q333.7656,861.9375 334.3906,861.9375 L342.0156,861.9375 L342.0156,864.5313 Q342.0156,865.1406 341.7813,865.4063 Q341.5625,865.6563 341.1719,865.6563 Q340.7969,865.6563 340.5625,865.4063 Q340.3281,865.1406 340.3281,864.5313 L340.3281,863.6406 L336.3594,863.6406 L336.3594,866.0938 L337.8438,866.0938 Q337.8438,865.4375 337.9688,865.25 Q338.2344,864.8438 338.7031,864.8438 Q339.0781,864.8438 339.3125,865.1094 Q339.5469,865.3594 339.5469,865.9688 L339.5469,867.9375 Q339.5469,868.4844 339.4219,868.6719 Q339.1563,869.0625 338.7031,869.0625 Q338.2344,869.0625 337.9688,868.6563 Q337.8438,868.4688 337.8438,867.7969 L336.3594,867.7969 Z " fill="#000000"/><text fill="#000000" font-family="sans-serif" font-size="14" lengthAdjust="spacing" textLength="55" x="351.5" y="872.7285">POIType</text><line style="stroke:#181818;stroke-width:0.5;" x1="323.5" x2="408.5" y1="883" y2="883"/><text fill="#000000" font-family="sans-serif" font-size="14" lengthAdjust="spacing" textLength="47" x="328.5" y="901.5332">CREEK</text><text fill="#000000" font-family="sans-serif" font-size="14" lengthAdjust="spacing" textLength="30" x="328.5" y="919.1426">SITE</text><text fill="#000000" font-family="sans-serif" font-size="14" lengthAdjust="spacing" textLength="43" x="328.5" y="936.752">BIOME</text><line style="stroke:#181818;stroke-width:0.5;" x1="323.5" x2="408.5" y1="943.8281" y2="943.8281"/></g><!--MD5=[3967fc7a0a045b99dc66695d5e3989d9]
reverse link AllPOIS to POI--><g id="link_AllPOIS_POI"><path codeLine="62" d="M268,511.27 C268,526.47 268,542.3 268,557.61 " fill="none" id="AllPOIS-backto-POI" style="stroke:#181818;stroke-width:1.0;"/><polygon fill="#181818" points="268,498.1,264,504.1,268,510.1,272,504.1,268,498.1" style="stroke:#181818;stroke-width:1.0;"/></g><!--MD5=[4b067e8ed1d330c21a2fa3050681c6d1]
reverse link ClosestCreek to AllPOIS--><g id="link_ClosestCreek_AllPOIS"><path codeLine="63" d="M157.62,216.02 C178.75,255.06 205.14,303.83 226.82,343.89 " fill="none" id="ClosestCreek-backto-AllPOIS" style="stroke:#181818;stroke-width:1.0;"/><polygon fill="none" points="151.39,204.5,150.7245,211.6803,157.0965,215.0563,157.762,207.876,151.39,204.5" style="stroke:#181818;stroke-width:1.0;"/></g><!--MD5=[5e1df4a52d579f1a0d5976a0dbd28317]
reverse link POI to Coordinate--><g id="link_POI_Coordinate"><path codeLine="64" d="M225.86,759.7 C219.64,775.38 213.27,791.43 207.16,806.83 " fill="none" id="POI-backto-Coordinate" style="stroke:#181818;stroke-width:1.0;"/><polygon fill="#181818" points="230.81,747.23,224.882,751.3359,226.392,758.3871,232.32,754.2812,230.81,747.23" style="stroke:#181818;stroke-width:1.0;"/></g><!--MD5=[5f4d2f85da79f43c0a7f6fea345efea7]
reverse link ScanLine to AllPOIS--><g id="link_ScanLine_AllPOIS"><path codeLine="65" d="M335.3,295.63 C326.27,312.33 317.37,328.77 309.15,343.96 " fill="none" id="ScanLine-backto-AllPOIS" style="stroke:#181818;stroke-width:1.0;"/><polygon fill="#181818" points="341.57,284.05,335.1962,287.4227,335.858,294.6033,342.2318,291.2307,341.57,284.05" style="stroke:#181818;stroke-width:1.0;"/></g><!--MD5=[6dc730e659e5eac942aee811b519cc6b]
link POI to POIType--><g id="link_POI_POIType"><path codeLine="66" d="M305.19,747.23 C318.4,780.52 332.82,816.87 344.3,845.81 " fill="none" id="POI-to-POIType" style="stroke:#181818;stroke-width:1.0;"/><polygon fill="#181818" points="346.27,850.76,346.6779,840.9196,344.4303,846.1108,339.2391,843.8632,346.27,850.76" style="stroke:#181818;stroke-width:1.0;"/></g><!--MD5=[375d077afe5966d5047f8961c1618d05]
@startuml Detailed Map Representation

class Coordinate {
- x : int
- y : int
+ Coordinate(x : int, y : int)
+ getX() : int
+ getY() : int
+ updateX(x : int) : void
+ updateY(y : int) : void
+ updateXandY(x : int, y : int) : void
}

class AllPOIS{
- creekLocations : List<POI>
- emergencySite : POI
+ AllPOIS(creekLocations : List<POI>)
+ addPoi(poi : POI, type : POIType) : void
+ getEmergencySite() : POI
+ getCreeks() : List<POI>
}

class ClosestCreek{
- allPOIS : AllPOIS
- creekClosest : POI
+ ClosestCreek(allPOIS : AllPOIS)
+ findClosestCreek() : POI
}

class POI{
- coordinate : Coordinate
- id : String
- type : POIType
+ POI(coordinate : Coordinate, id : String, type : POIType)
+ getX() : int
+ getY() : int
+ getID() : String
+ getPoiType() : POIType
}

class ScanLine{
- reachedEnd : boolean
- currentState : ScanLineState
- drone : Drone
- allPOIS : AllPOIS
- groundRange : int
- finalScan : boolean
+ ScanLine(drone : Drone, allPOIS : AllPOIS)
+ getNextDecision() : Action
+ react(response : Response) : void
+ getNextPhase() : Phase
+ reachedEnd() : boolean
+ isFinal() : boolean
+ getAllPOIS() : AllPOIS
}

enum POIType{
CREEK
SITE
BIOME
}

AllPOIS *- - POI
ClosestCreek o- - AllPOIS
POI *- - Coordinate
ScanLine *- - AllPOIS
POI - -> POIType

@enduml

PlantUML version 1.2022.7(Mon Aug 22 13:01:30 EDT 2022)
(GPL source distribution)
Java Runtime: Java(TM) SE Runtime Environment
JVM: Java HotSpot(TM) 64-Bit Server VM
Default Encoding: UTF-8
Language: en
Country: CA
--></g></svg>