<?xml version="1.0" encoding="UTF-8" standalone="no"?><svg xmlns="http://www.w3.org/2000/svg" xmlns:xlink="http://www.w3.org/1999/xlink" contentStyleType="text/css" height="1083px" preserveAspectRatio="none" style="width:2118px;height:1083px;background:#FFFFFF;" version="1.1" viewBox="0 0 2118 1083" width="2118px" zoomAndPan="magnify"><defs/><g><!--MD5=[35029accb77031662d9bd72a87160063]
cluster Actions--><g id="cluster_Actions"><path d="M646.76,792 L699.76,792 A3.75,3.75 0 0 1 702.26,794.5 L709.26,815.6094 L777.76,815.6094 A2.5,2.5 0 0 1 780.26,818.1094 L780.26,973.5 A2.5,2.5 0 0 1 777.76,976 L646.76,976 A2.5,2.5 0 0 1 644.26,973.5 L644.26,794.5 A2.5,2.5 0 0 1 646.76,792 " fill="none" style="stroke:#000000;stroke-width:1.5;"/><line style="stroke:#000000;stroke-width:1.5;" x1="644.26" x2="709.26" y1="815.6094" y2="815.6094"/><text fill="#000000" font-family="sans-serif" font-size="14" font-weight="bold" lengthAdjust="spacing" textLength="52" x="648.26" y="808.5332">Actions</text></g><!--MD5=[005c99a29c47e2005d43cd559935ef90]
cluster Directions--><g id="cluster_Directions"><path d="M856.76,884 L929.76,884 A3.75,3.75 0 0 1 932.26,886.5 L939.26,907.6094 L1197.76,907.6094 A2.5,2.5 0 0 1 1200.26,910.1094 L1200.26,1073.5 A2.5,2.5 0 0 1 1197.76,1076 L856.76,1076 A2.5,2.5 0 0 1 854.26,1073.5 L854.26,886.5 A2.5,2.5 0 0 1 856.76,884 " fill="none" style="stroke:#000000;stroke-width:1.5;"/><line style="stroke:#000000;stroke-width:1.5;" x1="854.26" x2="939.26" y1="907.6094" y2="907.6094"/><text fill="#000000" font-family="sans-serif" font-size="14" font-weight="bold" lengthAdjust="spacing" textLength="72" x="858.26" y="900.5332">Directions</text></g><!--MD5=[33e4d782c3b18e05334ef68555c0b84e]
cluster Phases--><g id="cluster_Phases"><path d="M1010.76,478 L1062.76,478 A3.75,3.75 0 0 1 1065.26,480.5 L1072.26,501.6094 L1934.76,501.6094 A2.5,2.5 0 0 1 1937.26,504.1094 L1937.26,765.5 A2.5,2.5 0 0 1 1934.76,768 L1010.76,768 A2.5,2.5 0 0 1 1008.26,765.5 L1008.26,480.5 A2.5,2.5 0 0 1 1010.76,478 " fill="none" style="stroke:#000000;stroke-width:1.5;"/><line style="stroke:#000000;stroke-width:1.5;" x1="1008.26" x2="1072.26" y1="501.6094" y2="501.6094"/><text fill="#000000" font-family="sans-serif" font-size="14" font-weight="bold" lengthAdjust="spacing" textLength="51" x="1012.26" y="494.5332">Phases</text></g><!--MD5=[3fd366d9f444a0cd380315dd15e91e33]
cluster Responses--><g id="cluster_Responses"><path d="M158.76,496 L238.76,496 A3.75,3.75 0 0 1 241.26,498.5 L248.26,519.6094 L651.76,519.6094 A2.5,2.5 0 0 1 654.26,522.1094 L654.26,765.5 A2.5,2.5 0 0 1 651.76,768 L158.76,768 A2.5,2.5 0 0 1 156.26,765.5 L156.26,498.5 A2.5,2.5 0 0 1 158.76,496 " fill="none" style="stroke:#000000;stroke-width:1.5;"/><line style="stroke:#000000;stroke-width:1.5;" x1="156.26" x2="248.26" y1="519.6094" y2="519.6094"/><text fill="#000000" font-family="sans-serif" font-size="14" font-weight="bold" lengthAdjust="spacing" textLength="79" x="160.26" y="512.5332">Responses</text></g><!--MD5=[75ed03879623e7bceda14271c764a8d7]
cluster POIs--><g id="cluster_POIs"><path d="M1963.76,535 L1996.76,535 A3.75,3.75 0 0 1 1999.26,537.5 L2006.26,558.6094 L2108.76,558.6094 A2.5,2.5 0 0 1 2111.26,561.1094 L2111.26,973.5 A2.5,2.5 0 0 1 2108.76,976 L1963.76,976 A2.5,2.5 0 0 1 1961.26,973.5 L1961.26,537.5 A2.5,2.5 0 0 1 1963.76,535 " fill="none" style="stroke:#000000;stroke-width:1.5;"/><line style="stroke:#000000;stroke-width:1.5;" x1="1961.26" x2="2006.26" y1="558.6094" y2="558.6094"/><text fill="#000000" font-family="sans-serif" font-size="14" font-weight="bold" lengthAdjust="spacing" textLength="32" x="1965.26" y="551.5332">POIs</text></g><!--MD5=[f8e7078f77c005d15b486c0c98deb1e6]
class Action--><g id="elem_Action"><rect codeLine="10" fill="#F1F1F1" height="32" id="Action" rx="2.5" ry="2.5" style="stroke:#181818;stroke-width:0.5;" width="71" x="676.76" y="828"/><ellipse cx="691.76" cy="844" fill="#ADD1B2" rx="11" ry="11" style="stroke:#181818;stroke-width:1.0;"/><path d="M694.5256,839.875 Q694.6819,839.6563 694.8694,839.5469 Q695.0569,839.4375 695.2756,839.4375 Q695.6506,839.4375 695.885,839.7031 Q696.1194,839.9531 696.1194,840.5625 L696.1194,842.0156 Q696.1194,842.625 695.885,842.8906 Q695.6506,843.1563 695.2756,843.1563 Q694.9319,843.1563 694.7288,842.9531 Q694.5256,842.7656 694.4163,842.25 Q694.3694,841.8906 694.1819,841.7031 Q693.8538,841.3281 693.2444,841.1094 Q692.635,840.8906 692.01,840.8906 Q691.2444,840.8906 690.6038,841.2188 Q689.9788,841.5469 689.4788,842.2969 Q688.9944,843.0469 688.9944,844.0781 L688.9944,845.1719 Q688.9944,846.4063 689.885,847.2344 Q690.7756,848.0469 692.3694,848.0469 Q693.3069,848.0469 693.9631,847.7969 Q694.3538,847.6406 694.7756,847.2031 Q695.0413,846.9375 695.1819,846.8594 Q695.3381,846.7813 695.5413,846.7813 Q695.8694,846.7813 696.1194,847.0469 Q696.385,847.2969 696.385,847.6406 Q696.385,847.9844 696.0413,848.3906 Q695.5413,848.9688 694.7444,849.2969 Q693.6663,849.75 692.3694,849.75 Q690.8538,849.75 689.6506,849.125 Q688.6663,848.625 687.9788,847.5625 Q687.2913,846.4844 687.2913,845.2031 L687.2913,844.0469 Q687.2913,842.7188 687.9006,841.5781 Q688.5256,840.4219 689.6194,839.8125 Q690.7131,839.1875 691.9475,839.1875 Q692.6819,839.1875 693.3225,839.3594 Q693.9788,839.5156 694.5256,839.875 Z " fill="#000000"/><text fill="#000000" font-family="sans-serif" font-size="14" lengthAdjust="spacing" textLength="39" x="705.76" y="849.7285">Action</text></g><!--MD5=[994a5a3820d9ca46072a21178650f513]
class ActionType--><g id="elem_ActionType"><rect codeLine="11" fill="#F1F1F1" height="32" id="ActionType" rx="2.5" ry="2.5" style="stroke:#181818;stroke-width:0.5;" width="103" x="660.76" y="928"/><ellipse cx="675.76" cy="944" fill="#EB937F" rx="11" ry="11" style="stroke:#181818;stroke-width:1.0;"/><path d="M674.6194,944.7969 L674.6194,947.2969 L678.9475,947.2969 L678.9475,946.375 Q678.9475,945.7656 679.1819,945.5 Q679.4319,945.2344 679.8069,945.2344 Q680.1819,945.2344 680.4163,945.5 Q680.6506,945.7656 680.6506,946.375 L680.6506,949 L672.6506,949 Q672.0256,949 671.76,948.7656 Q671.51,948.5313 671.51,948.1406 Q671.51,947.7656 671.7756,947.5313 Q672.0413,947.2969 672.6506,947.2969 L672.9163,947.2969 L672.9163,940.6406 L672.6506,940.6406 Q672.0256,940.6406 671.76,940.4063 Q671.51,940.1719 671.51,939.7813 Q671.51,939.4063 671.76,939.1719 Q672.0256,938.9375 672.6506,938.9375 L680.2756,938.9375 L680.2756,941.5313 Q680.2756,942.1406 680.0413,942.4063 Q679.8225,942.6563 679.4319,942.6563 Q679.0569,942.6563 678.8225,942.4063 Q678.5881,942.1406 678.5881,941.5313 L678.5881,940.6406 L674.6194,940.6406 L674.6194,943.0938 L676.1038,943.0938 Q676.1038,942.4375 676.2288,942.25 Q676.4944,941.8438 676.9631,941.8438 Q677.3381,941.8438 677.5725,942.1094 Q677.8069,942.3594 677.8069,942.9688 L677.8069,944.9375 Q677.8069,945.4844 677.6819,945.6719 Q677.4163,946.0625 676.9631,946.0625 Q676.4944,946.0625 676.2288,945.6563 Q676.1038,945.4688 676.1038,944.7969 L674.6194,944.7969 Z " fill="#000000"/><text fill="#000000" font-family="sans-serif" font-size="14" lengthAdjust="spacing" textLength="71" x="689.76" y="949.7285">ActionType</text></g><!--MD5=[58f88c1077d52c87dd058737ad3cc212]
class CardinalDirection--><g id="elem_CardinalDirection"><rect codeLine="17" fill="#F1F1F1" height="32" id="CardinalDirection" rx="2.5" ry="2.5" style="stroke:#181818;stroke-width:0.5;" width="141" x="897.76" y="928"/><ellipse cx="912.76" cy="944" fill="#EB937F" rx="11" ry="11" style="stroke:#181818;stroke-width:1.0;"/><path d="M911.6194,944.7969 L911.6194,947.2969 L915.9475,947.2969 L915.9475,946.375 Q915.9475,945.7656 916.1819,945.5 Q916.4319,945.2344 916.8069,945.2344 Q917.1819,945.2344 917.4163,945.5 Q917.6506,945.7656 917.6506,946.375 L917.6506,949 L909.6506,949 Q909.0256,949 908.76,948.7656 Q908.51,948.5313 908.51,948.1406 Q908.51,947.7656 908.7756,947.5313 Q909.0413,947.2969 909.6506,947.2969 L909.9163,947.2969 L909.9163,940.6406 L909.6506,940.6406 Q909.0256,940.6406 908.76,940.4063 Q908.51,940.1719 908.51,939.7813 Q908.51,939.4063 908.76,939.1719 Q909.0256,938.9375 909.6506,938.9375 L917.2756,938.9375 L917.2756,941.5313 Q917.2756,942.1406 917.0413,942.4063 Q916.8225,942.6563 916.4319,942.6563 Q916.0569,942.6563 915.8225,942.4063 Q915.5881,942.1406 915.5881,941.5313 L915.5881,940.6406 L911.6194,940.6406 L911.6194,943.0938 L913.1038,943.0938 Q913.1038,942.4375 913.2288,942.25 Q913.4944,941.8438 913.9631,941.8438 Q914.3381,941.8438 914.5725,942.1094 Q914.8069,942.3594 914.8069,942.9688 L914.8069,944.9375 Q914.8069,945.4844 914.6819,945.6719 Q914.4163,946.0625 913.9631,946.0625 Q913.4944,946.0625 913.2288,945.6563 Q913.1038,945.4688 913.1038,944.7969 L911.6194,944.7969 Z " fill="#000000"/><text fill="#000000" font-family="sans-serif" font-size="14" lengthAdjust="spacing" textLength="109" x="926.76" y="949.7285">CardinalDirection</text></g><!--MD5=[603b5c4369211cc414255b54ba6df74f]
class Orientation--><g id="elem_Orientation"><rect codeLine="18" fill="#F1F1F1" height="32" id="Orientation" rx="2.5" ry="2.5" style="stroke:#181818;stroke-width:0.5;" width="102" x="1074.26" y="928"/><ellipse cx="1089.26" cy="944" fill="#EB937F" rx="11" ry="11" style="stroke:#181818;stroke-width:1.0;"/><path d="M1088.1194,944.7969 L1088.1194,947.2969 L1092.4475,947.2969 L1092.4475,946.375 Q1092.4475,945.7656 1092.6819,945.5 Q1092.9319,945.2344 1093.3069,945.2344 Q1093.6819,945.2344 1093.9163,945.5 Q1094.1506,945.7656 1094.1506,946.375 L1094.1506,949 L1086.1506,949 Q1085.5256,949 1085.26,948.7656 Q1085.01,948.5313 1085.01,948.1406 Q1085.01,947.7656 1085.2756,947.5313 Q1085.5413,947.2969 1086.1506,947.2969 L1086.4163,947.2969 L1086.4163,940.6406 L1086.1506,940.6406 Q1085.5256,940.6406 1085.26,940.4063 Q1085.01,940.1719 1085.01,939.7813 Q1085.01,939.4063 1085.26,939.1719 Q1085.5256,938.9375 1086.1506,938.9375 L1093.7756,938.9375 L1093.7756,941.5313 Q1093.7756,942.1406 1093.5413,942.4063 Q1093.3225,942.6563 1092.9319,942.6563 Q1092.5569,942.6563 1092.3225,942.4063 Q1092.0881,942.1406 1092.0881,941.5313 L1092.0881,940.6406 L1088.1194,940.6406 L1088.1194,943.0938 L1089.6038,943.0938 Q1089.6038,942.4375 1089.7288,942.25 Q1089.9944,941.8438 1090.4631,941.8438 Q1090.8381,941.8438 1091.0725,942.1094 Q1091.3069,942.3594 1091.3069,942.9688 L1091.3069,944.9375 Q1091.3069,945.4844 1091.1819,945.6719 Q1090.9163,946.0625 1090.4631,946.0625 Q1089.9944,946.0625 1089.7288,945.6563 Q1089.6038,945.4688 1089.6038,944.7969 L1088.1194,944.7969 Z " fill="#000000"/><text fill="#000000" font-family="sans-serif" font-size="14" lengthAdjust="spacing" textLength="70" x="1103.26" y="949.7285">Orientation</text></g><!--MD5=[76d49e0599d325b67e9ccb91ad194e50]
class RelativeDirection--><g id="elem_RelativeDirection"><rect codeLine="19" fill="#F1F1F1" height="32" id="RelativeDirection" rx="2.5" ry="2.5" style="stroke:#181818;stroke-width:0.5;" width="139" x="898.76" y="1020"/><ellipse cx="913.76" cy="1036" fill="#EB937F" rx="11" ry="11" style="stroke:#181818;stroke-width:1.0;"/><path d="M912.6194,1036.7969 L912.6194,1039.2969 L916.9475,1039.2969 L916.9475,1038.375 Q916.9475,1037.7656 917.1819,1037.5 Q917.4319,1037.2344 917.8069,1037.2344 Q918.1819,1037.2344 918.4163,1037.5 Q918.6506,1037.7656 918.6506,1038.375 L918.6506,1041 L910.6506,1041 Q910.0256,1041 909.76,1040.7656 Q909.51,1040.5313 909.51,1040.1406 Q909.51,1039.7656 909.7756,1039.5313 Q910.0413,1039.2969 910.6506,1039.2969 L910.9163,1039.2969 L910.9163,1032.6406 L910.6506,1032.6406 Q910.0256,1032.6406 909.76,1032.4063 Q909.51,1032.1719 909.51,1031.7813 Q909.51,1031.4063 909.76,1031.1719 Q910.0256,1030.9375 910.6506,1030.9375 L918.2756,1030.9375 L918.2756,1033.5313 Q918.2756,1034.1406 918.0413,1034.4063 Q917.8225,1034.6563 917.4319,1034.6563 Q917.0569,1034.6563 916.8225,1034.4063 Q916.5881,1034.1406 916.5881,1033.5313 L916.5881,1032.6406 L912.6194,1032.6406 L912.6194,1035.0938 L914.1038,1035.0938 Q914.1038,1034.4375 914.2288,1034.25 Q914.4944,1033.8438 914.9631,1033.8438 Q915.3381,1033.8438 915.5725,1034.1094 Q915.8069,1034.3594 915.8069,1034.9688 L915.8069,1036.9375 Q915.8069,1037.4844 915.6819,1037.6719 Q915.4163,1038.0625 914.9631,1038.0625 Q914.4944,1038.0625 914.2288,1037.6563 Q914.1038,1037.4688 914.1038,1036.7969 L912.6194,1036.7969 Z " fill="#000000"/><text fill="#000000" font-family="sans-serif" font-size="14" lengthAdjust="spacing" textLength="107" x="927.76" y="1041.7285">RelativeDirection</text></g><!--MD5=[1314a8d04cf5d0c870cb7d34130ceecc]
class Phase--><g id="elem_Phase"><rect codeLine="23" fill="#F1F1F1" height="145.6563" id="Phase" rx="2.5" ry="2.5" style="stroke:#181818;stroke-width:0.5;" width="223" x="1139.76" y="514"/><ellipse cx="1227.01" cy="530" fill="#B4A7E5" rx="11" ry="11" style="stroke:#181818;stroke-width:1.0;"/><path d="M1227.9631,526.6406 L1227.9631,533.2969 L1229.6819,533.2969 Q1230.2913,533.2969 1230.5569,533.5313 Q1230.8225,533.7656 1230.8225,534.1563 Q1230.8225,534.5313 1230.5569,534.7656 Q1230.2913,535 1229.6819,535 L1224.5413,535 Q1223.9319,535 1223.6663,534.7656 Q1223.4006,534.5313 1223.4006,534.1406 Q1223.4006,533.7656 1223.6663,533.5313 Q1223.9319,533.2969 1224.5413,533.2969 L1226.26,533.2969 L1226.26,526.6406 L1224.5413,526.6406 Q1223.9319,526.6406 1223.6663,526.4063 Q1223.4006,526.1719 1223.4006,525.7813 Q1223.4006,525.4063 1223.6663,525.1719 Q1223.9319,524.9375 1224.5413,524.9375 L1229.6819,524.9375 Q1230.2913,524.9375 1230.5569,525.1719 Q1230.8225,525.4063 1230.8225,525.7813 Q1230.8225,526.1719 1230.5569,526.4063 Q1230.2913,526.6406 1229.6819,526.6406 L1227.9631,526.6406 Z " fill="#000000"/><text fill="#000000" font-family="sans-serif" font-size="14" font-style="italic" lengthAdjust="spacing" textLength="40" x="1247.51" y="535.7285">Phase</text><line style="stroke:#181818;stroke-width:0.5;" x1="1140.76" x2="1361.76" y1="546" y2="546"/><text fill="#000000" font-family="sans-serif" font-size="14" lengthAdjust="spacing" textLength="158" x="1145.76" y="564.5332">getNextDecision(): Action</text><text fill="#000000" font-family="sans-serif" font-size="14" lengthAdjust="spacing" textLength="145" x="1145.76" y="582.1426">getNextPhase(): Phase</text><text fill="#000000" font-family="sans-serif" font-size="14" lengthAdjust="spacing" textLength="211" x="1145.76" y="599.752">react(response : Response): void</text><text fill="#000000" font-family="sans-serif" font-size="14" lengthAdjust="spacing" textLength="146" x="1145.76" y="617.3613">reachedEnd(): boolean</text><text fill="#000000" font-family="sans-serif" font-size="14" lengthAdjust="spacing" textLength="110" x="1145.76" y="634.9707">isFinal(): boolean</text><text fill="#000000" font-family="sans-serif" font-size="14" lengthAdjust="spacing" textLength="130" x="1145.76" y="652.5801">getCreeks(): AllPOIS</text></g><!--MD5=[e48ef8850311d260e1de6f7a21b84e7a]
class FindCorner--><g id="elem_FindCorner"><rect codeLine="31" fill="#F1F1F1" height="32" id="FindCorner" rx="2.5" ry="2.5" style="stroke:#181818;stroke-width:0.5;" width="104" x="1131.26" y="720"/><ellipse cx="1146.26" cy="736" fill="#ADD1B2" rx="11" ry="11" style="stroke:#181818;stroke-width:1.0;"/><path d="M1149.0256,731.875 Q1149.1819,731.6563 1149.3694,731.5469 Q1149.5569,731.4375 1149.7756,731.4375 Q1150.1506,731.4375 1150.385,731.7031 Q1150.6194,731.9531 1150.6194,732.5625 L1150.6194,734.0156 Q1150.6194,734.625 1150.385,734.8906 Q1150.1506,735.1563 1149.7756,735.1563 Q1149.4319,735.1563 1149.2288,734.9531 Q1149.0256,734.7656 1148.9163,734.25 Q1148.8694,733.8906 1148.6819,733.7031 Q1148.3538,733.3281 1147.7444,733.1094 Q1147.135,732.8906 1146.51,732.8906 Q1145.7444,732.8906 1145.1038,733.2188 Q1144.4788,733.5469 1143.9788,734.2969 Q1143.4944,735.0469 1143.4944,736.0781 L1143.4944,737.1719 Q1143.4944,738.4063 1144.385,739.2344 Q1145.2756,740.0469 1146.8694,740.0469 Q1147.8069,740.0469 1148.4631,739.7969 Q1148.8538,739.6406 1149.2756,739.2031 Q1149.5413,738.9375 1149.6819,738.8594 Q1149.8381,738.7813 1150.0413,738.7813 Q1150.3694,738.7813 1150.6194,739.0469 Q1150.885,739.2969 1150.885,739.6406 Q1150.885,739.9844 1150.5413,740.3906 Q1150.0413,740.9688 1149.2444,741.2969 Q1148.1663,741.75 1146.8694,741.75 Q1145.3538,741.75 1144.1506,741.125 Q1143.1663,740.625 1142.4788,739.5625 Q1141.7913,738.4844 1141.7913,737.2031 L1141.7913,736.0469 Q1141.7913,734.7188 1142.4006,733.5781 Q1143.0256,732.4219 1144.1194,731.8125 Q1145.2131,731.1875 1146.4475,731.1875 Q1147.1819,731.1875 1147.8225,731.3594 Q1148.4788,731.5156 1149.0256,731.875 Z " fill="#000000"/><text fill="#000000" font-family="sans-serif" font-size="14" lengthAdjust="spacing" textLength="72" x="1160.26" y="741.7285">FindCorner</text></g><!--MD5=[479604a59e46df93ef17a10045606f66]
class FindIsland--><g id="elem_FindIsland"><rect codeLine="32" fill="#F1F1F1" height="32" id="FindIsland" rx="2.5" ry="2.5" style="stroke:#181818;stroke-width:0.5;" width="97" x="1270.76" y="720"/><ellipse cx="1285.76" cy="736" fill="#ADD1B2" rx="11" ry="11" style="stroke:#181818;stroke-width:1.0;"/><path d="M1288.5256,731.875 Q1288.6819,731.6563 1288.8694,731.5469 Q1289.0569,731.4375 1289.2756,731.4375 Q1289.6506,731.4375 1289.885,731.7031 Q1290.1194,731.9531 1290.1194,732.5625 L1290.1194,734.0156 Q1290.1194,734.625 1289.885,734.8906 Q1289.6506,735.1563 1289.2756,735.1563 Q1288.9319,735.1563 1288.7288,734.9531 Q1288.5256,734.7656 1288.4163,734.25 Q1288.3694,733.8906 1288.1819,733.7031 Q1287.8538,733.3281 1287.2444,733.1094 Q1286.635,732.8906 1286.01,732.8906 Q1285.2444,732.8906 1284.6038,733.2188 Q1283.9788,733.5469 1283.4788,734.2969 Q1282.9944,735.0469 1282.9944,736.0781 L1282.9944,737.1719 Q1282.9944,738.4063 1283.885,739.2344 Q1284.7756,740.0469 1286.3694,740.0469 Q1287.3069,740.0469 1287.9631,739.7969 Q1288.3538,739.6406 1288.7756,739.2031 Q1289.0413,738.9375 1289.1819,738.8594 Q1289.3381,738.7813 1289.5413,738.7813 Q1289.8694,738.7813 1290.1194,739.0469 Q1290.385,739.2969 1290.385,739.6406 Q1290.385,739.9844 1290.0413,740.3906 Q1289.5413,740.9688 1288.7444,741.2969 Q1287.6663,741.75 1286.3694,741.75 Q1284.8538,741.75 1283.6506,741.125 Q1282.6663,740.625 1281.9788,739.5625 Q1281.2913,738.4844 1281.2913,737.2031 L1281.2913,736.0469 Q1281.2913,734.7188 1281.9006,733.5781 Q1282.5256,732.4219 1283.6194,731.8125 Q1284.7131,731.1875 1285.9475,731.1875 Q1286.6819,731.1875 1287.3225,731.3594 Q1287.9788,731.5156 1288.5256,731.875 Z " fill="#000000"/><text fill="#000000" font-family="sans-serif" font-size="14" lengthAdjust="spacing" textLength="65" x="1299.76" y="741.7285">FindIsland</text></g><!--MD5=[c11f9cba48bb968eac6636a58dd0f58c]
class ResetLeft--><g id="elem_ResetLeft"><rect codeLine="33" fill="#F1F1F1" height="32" id="ResetLeft" rx="2.5" ry="2.5" style="stroke:#181818;stroke-width:0.5;" width="93" x="1402.76" y="720"/><ellipse cx="1417.76" cy="736" fill="#ADD1B2" rx="11" ry="11" style="stroke:#181818;stroke-width:1.0;"/><path d="M1420.5256,731.875 Q1420.6819,731.6563 1420.8694,731.5469 Q1421.0569,731.4375 1421.2756,731.4375 Q1421.6506,731.4375 1421.885,731.7031 Q1422.1194,731.9531 1422.1194,732.5625 L1422.1194,734.0156 Q1422.1194,734.625 1421.885,734.8906 Q1421.6506,735.1563 1421.2756,735.1563 Q1420.9319,735.1563 1420.7288,734.9531 Q1420.5256,734.7656 1420.4163,734.25 Q1420.3694,733.8906 1420.1819,733.7031 Q1419.8538,733.3281 1419.2444,733.1094 Q1418.635,732.8906 1418.01,732.8906 Q1417.2444,732.8906 1416.6038,733.2188 Q1415.9788,733.5469 1415.4788,734.2969 Q1414.9944,735.0469 1414.9944,736.0781 L1414.9944,737.1719 Q1414.9944,738.4063 1415.885,739.2344 Q1416.7756,740.0469 1418.3694,740.0469 Q1419.3069,740.0469 1419.9631,739.7969 Q1420.3538,739.6406 1420.7756,739.2031 Q1421.0413,738.9375 1421.1819,738.8594 Q1421.3381,738.7813 1421.5413,738.7813 Q1421.8694,738.7813 1422.1194,739.0469 Q1422.385,739.2969 1422.385,739.6406 Q1422.385,739.9844 1422.0413,740.3906 Q1421.5413,740.9688 1420.7444,741.2969 Q1419.6663,741.75 1418.3694,741.75 Q1416.8538,741.75 1415.6506,741.125 Q1414.6663,740.625 1413.9788,739.5625 Q1413.2913,738.4844 1413.2913,737.2031 L1413.2913,736.0469 Q1413.2913,734.7188 1413.9006,733.5781 Q1414.5256,732.4219 1415.6194,731.8125 Q1416.7131,731.1875 1417.9475,731.1875 Q1418.6819,731.1875 1419.3225,731.3594 Q1419.9788,731.5156 1420.5256,731.875 Z " fill="#000000"/><text fill="#000000" font-family="sans-serif" font-size="14" lengthAdjust="spacing" textLength="61" x="1431.76" y="741.7285">ResetLeft</text></g><!--MD5=[d2a1cab4c4b20c3d5e475d9830ecd135]
class ResetRight--><g id="elem_ResetRight"><rect codeLine="34" fill="#F1F1F1" height="32" id="ResetRight" rx="2.5" ry="2.5" style="stroke:#181818;stroke-width:0.5;" width="102" x="1531.26" y="720"/><ellipse cx="1546.26" cy="736" fill="#ADD1B2" rx="11" ry="11" style="stroke:#181818;stroke-width:1.0;"/><path d="M1549.0256,731.875 Q1549.1819,731.6563 1549.3694,731.5469 Q1549.5569,731.4375 1549.7756,731.4375 Q1550.1506,731.4375 1550.385,731.7031 Q1550.6194,731.9531 1550.6194,732.5625 L1550.6194,734.0156 Q1550.6194,734.625 1550.385,734.8906 Q1550.1506,735.1563 1549.7756,735.1563 Q1549.4319,735.1563 1549.2288,734.9531 Q1549.0256,734.7656 1548.9163,734.25 Q1548.8694,733.8906 1548.6819,733.7031 Q1548.3538,733.3281 1547.7444,733.1094 Q1547.135,732.8906 1546.51,732.8906 Q1545.7444,732.8906 1545.1038,733.2188 Q1544.4788,733.5469 1543.9788,734.2969 Q1543.4944,735.0469 1543.4944,736.0781 L1543.4944,737.1719 Q1543.4944,738.4063 1544.385,739.2344 Q1545.2756,740.0469 1546.8694,740.0469 Q1547.8069,740.0469 1548.4631,739.7969 Q1548.8538,739.6406 1549.2756,739.2031 Q1549.5413,738.9375 1549.6819,738.8594 Q1549.8381,738.7813 1550.0413,738.7813 Q1550.3694,738.7813 1550.6194,739.0469 Q1550.885,739.2969 1550.885,739.6406 Q1550.885,739.9844 1550.5413,740.3906 Q1550.0413,740.9688 1549.2444,741.2969 Q1548.1663,741.75 1546.8694,741.75 Q1545.3538,741.75 1544.1506,741.125 Q1543.1663,740.625 1542.4788,739.5625 Q1541.7913,738.4844 1541.7913,737.2031 L1541.7913,736.0469 Q1541.7913,734.7188 1542.4006,733.5781 Q1543.0256,732.4219 1544.1194,731.8125 Q1545.2131,731.1875 1546.4475,731.1875 Q1547.1819,731.1875 1547.8225,731.3594 Q1548.4788,731.5156 1549.0256,731.875 Z " fill="#000000"/><text fill="#000000" font-family="sans-serif" font-size="14" lengthAdjust="spacing" textLength="70" x="1560.26" y="741.7285">ResetRight</text></g><!--MD5=[285ab7d62d4066227885d174393fe1a8]
class ScanLine--><g id="elem_ScanLine"><rect codeLine="35" fill="#F1F1F1" height="32" id="ScanLine" rx="2.5" ry="2.5" style="stroke:#181818;stroke-width:0.5;" width="91" x="1668.76" y="720"/><ellipse cx="1683.76" cy="736" fill="#ADD1B2" rx="11" ry="11" style="stroke:#181818;stroke-width:1.0;"/><path d="M1686.5256,731.875 Q1686.6819,731.6563 1686.8694,731.5469 Q1687.0569,731.4375 1687.2756,731.4375 Q1687.6506,731.4375 1687.885,731.7031 Q1688.1194,731.9531 1688.1194,732.5625 L1688.1194,734.0156 Q1688.1194,734.625 1687.885,734.8906 Q1687.6506,735.1563 1687.2756,735.1563 Q1686.9319,735.1563 1686.7288,734.9531 Q1686.5256,734.7656 1686.4163,734.25 Q1686.3694,733.8906 1686.1819,733.7031 Q1685.8538,733.3281 1685.2444,733.1094 Q1684.635,732.8906 1684.01,732.8906 Q1683.2444,732.8906 1682.6038,733.2188 Q1681.9788,733.5469 1681.4788,734.2969 Q1680.9944,735.0469 1680.9944,736.0781 L1680.9944,737.1719 Q1680.9944,738.4063 1681.885,739.2344 Q1682.7756,740.0469 1684.3694,740.0469 Q1685.3069,740.0469 1685.9631,739.7969 Q1686.3538,739.6406 1686.7756,739.2031 Q1687.0413,738.9375 1687.1819,738.8594 Q1687.3381,738.7813 1687.5413,738.7813 Q1687.8694,738.7813 1688.1194,739.0469 Q1688.385,739.2969 1688.385,739.6406 Q1688.385,739.9844 1688.0413,740.3906 Q1687.5413,740.9688 1686.7444,741.2969 Q1685.6663,741.75 1684.3694,741.75 Q1682.8538,741.75 1681.6506,741.125 Q1680.6663,740.625 1679.9788,739.5625 Q1679.2913,738.4844 1679.2913,737.2031 L1679.2913,736.0469 Q1679.2913,734.7188 1679.9006,733.5781 Q1680.5256,732.4219 1681.6194,731.8125 Q1682.7131,731.1875 1683.9475,731.1875 Q1684.6819,731.1875 1685.3225,731.3594 Q1685.9788,731.5156 1686.5256,731.875 Z " fill="#000000"/><text fill="#000000" font-family="sans-serif" font-size="14" lengthAdjust="spacing" textLength="59" x="1697.76" y="741.7285">ScanLine</text></g><!--MD5=[7915ed20ca0aa18c689dd27bc94abc2c]
class TravelToIsland--><g id="elem_TravelToIsland"><rect codeLine="36" fill="#F1F1F1" height="32" id="TravelToIsland" rx="2.5" ry="2.5" style="stroke:#181818;stroke-width:0.5;" width="126" x="1795.26" y="720"/><ellipse cx="1810.26" cy="736" fill="#ADD1B2" rx="11" ry="11" style="stroke:#181818;stroke-width:1.0;"/><path d="M1813.0256,731.875 Q1813.1819,731.6563 1813.3694,731.5469 Q1813.5569,731.4375 1813.7756,731.4375 Q1814.1506,731.4375 1814.385,731.7031 Q1814.6194,731.9531 1814.6194,732.5625 L1814.6194,734.0156 Q1814.6194,734.625 1814.385,734.8906 Q1814.1506,735.1563 1813.7756,735.1563 Q1813.4319,735.1563 1813.2288,734.9531 Q1813.0256,734.7656 1812.9163,734.25 Q1812.8694,733.8906 1812.6819,733.7031 Q1812.3538,733.3281 1811.7444,733.1094 Q1811.135,732.8906 1810.51,732.8906 Q1809.7444,732.8906 1809.1038,733.2188 Q1808.4788,733.5469 1807.9788,734.2969 Q1807.4944,735.0469 1807.4944,736.0781 L1807.4944,737.1719 Q1807.4944,738.4063 1808.385,739.2344 Q1809.2756,740.0469 1810.8694,740.0469 Q1811.8069,740.0469 1812.4631,739.7969 Q1812.8538,739.6406 1813.2756,739.2031 Q1813.5413,738.9375 1813.6819,738.8594 Q1813.8381,738.7813 1814.0413,738.7813 Q1814.3694,738.7813 1814.6194,739.0469 Q1814.885,739.2969 1814.885,739.6406 Q1814.885,739.9844 1814.5413,740.3906 Q1814.0413,740.9688 1813.2444,741.2969 Q1812.1663,741.75 1810.8694,741.75 Q1809.3538,741.75 1808.1506,741.125 Q1807.1663,740.625 1806.4788,739.5625 Q1805.7913,738.4844 1805.7913,737.2031 L1805.7913,736.0469 Q1805.7913,734.7188 1806.4006,733.5781 Q1807.0256,732.4219 1808.1194,731.8125 Q1809.2131,731.1875 1810.4475,731.1875 Q1811.1819,731.1875 1811.8225,731.3594 Q1812.4788,731.5156 1813.0256,731.875 Z " fill="#000000"/><text fill="#000000" font-family="sans-serif" font-size="14" lengthAdjust="spacing" textLength="94" x="1824.26" y="741.7285">TravelToIsland</text></g><!--MD5=[706da705568b68471d84a7b50009317d]
class UTurn--><g id="elem_UTurn"><rect codeLine="37" fill="#F1F1F1" height="32" id="UTurn" rx="2.5" ry="2.5" style="stroke:#181818;stroke-width:0.5;" width="71" x="1024.76" y="720"/><ellipse cx="1039.76" cy="736" fill="#ADD1B2" rx="11" ry="11" style="stroke:#181818;stroke-width:1.0;"/><path d="M1042.5256,731.875 Q1042.6819,731.6563 1042.8694,731.5469 Q1043.0569,731.4375 1043.2756,731.4375 Q1043.6506,731.4375 1043.885,731.7031 Q1044.1194,731.9531 1044.1194,732.5625 L1044.1194,734.0156 Q1044.1194,734.625 1043.885,734.8906 Q1043.6506,735.1563 1043.2756,735.1563 Q1042.9319,735.1563 1042.7288,734.9531 Q1042.5256,734.7656 1042.4163,734.25 Q1042.3694,733.8906 1042.1819,733.7031 Q1041.8538,733.3281 1041.2444,733.1094 Q1040.635,732.8906 1040.01,732.8906 Q1039.2444,732.8906 1038.6038,733.2188 Q1037.9788,733.5469 1037.4788,734.2969 Q1036.9944,735.0469 1036.9944,736.0781 L1036.9944,737.1719 Q1036.9944,738.4063 1037.885,739.2344 Q1038.7756,740.0469 1040.3694,740.0469 Q1041.3069,740.0469 1041.9631,739.7969 Q1042.3538,739.6406 1042.7756,739.2031 Q1043.0413,738.9375 1043.1819,738.8594 Q1043.3381,738.7813 1043.5413,738.7813 Q1043.8694,738.7813 1044.1194,739.0469 Q1044.385,739.2969 1044.385,739.6406 Q1044.385,739.9844 1044.0413,740.3906 Q1043.5413,740.9688 1042.7444,741.2969 Q1041.6663,741.75 1040.3694,741.75 Q1038.8538,741.75 1037.6506,741.125 Q1036.6663,740.625 1035.9788,739.5625 Q1035.2913,738.4844 1035.2913,737.2031 L1035.2913,736.0469 Q1035.2913,734.7188 1035.9006,733.5781 Q1036.5256,732.4219 1037.6194,731.8125 Q1038.7131,731.1875 1039.9475,731.1875 Q1040.6819,731.1875 1041.3225,731.3594 Q1041.9788,731.5156 1042.5256,731.875 Z " fill="#000000"/><text fill="#000000" font-family="sans-serif" font-size="14" lengthAdjust="spacing" textLength="39" x="1053.76" y="741.7285">UTurn</text></g><!--MD5=[62ba8ad8b61caf20139235a169a8c31d]
class Response--><g id="elem_Response"><rect codeLine="42" fill="#F1F1F1" height="110.4375" id="Response" rx="2.5" ry="2.5" style="stroke:#181818;stroke-width:0.5;" width="204" x="434.26" y="532"/><ellipse cx="500.01" cy="548" fill="#B4A7E5" rx="11" ry="11" style="stroke:#181818;stroke-width:1.0;"/><path d="M500.9631,544.6406 L500.9631,551.2969 L502.6819,551.2969 Q503.2913,551.2969 503.5569,551.5313 Q503.8225,551.7656 503.8225,552.1563 Q503.8225,552.5313 503.5569,552.7656 Q503.2913,553 502.6819,553 L497.5413,553 Q496.9319,553 496.6663,552.7656 Q496.4006,552.5313 496.4006,552.1406 Q496.4006,551.7656 496.6663,551.5313 Q496.9319,551.2969 497.5413,551.2969 L499.26,551.2969 L499.26,544.6406 L497.5413,544.6406 Q496.9319,544.6406 496.6663,544.4063 Q496.4006,544.1719 496.4006,543.7813 Q496.4006,543.4063 496.6663,543.1719 Q496.9319,542.9375 497.5413,542.9375 L502.6819,542.9375 Q503.2913,542.9375 503.5569,543.1719 Q503.8225,543.4063 503.8225,543.7813 Q503.8225,544.1719 503.5569,544.4063 Q503.2913,544.6406 502.6819,544.6406 L500.9631,544.6406 Z " fill="#000000"/><text fill="#000000" font-family="sans-serif" font-size="14" font-style="italic" lengthAdjust="spacing" textLength="64" x="520.51" y="553.7285">Response</text><line style="stroke:#181818;stroke-width:0.5;" x1="435.26" x2="637.26" y1="564" y2="564"/><text fill="#000000" font-family="sans-serif" font-size="14" lengthAdjust="spacing" textLength="82" x="440.26" y="582.5332">getCost(): int</text><text fill="#000000" font-family="sans-serif" font-size="14" lengthAdjust="spacing" textLength="115" x="440.26" y="600.1426">getStatus(): String</text><text fill="#000000" font-family="sans-serif" font-size="14" lengthAdjust="spacing" textLength="141" x="440.26" y="617.752">getType(): ActionType</text><text fill="#000000" font-family="sans-serif" font-size="14" lengthAdjust="spacing" textLength="192" x="440.26" y="635.3613">getData(): Map&lt;String, Value&gt;</text></g><!--MD5=[36960874b604c3427870507448456004]
class NormalResponse--><g id="elem_NormalResponse"><rect codeLine="48" fill="#F1F1F1" height="32" id="NormalResponse" rx="2.5" ry="2.5" style="stroke:#181818;stroke-width:0.5;" width="140" x="498.26" y="720"/><ellipse cx="513.26" cy="736" fill="#ADD1B2" rx="11" ry="11" style="stroke:#181818;stroke-width:1.0;"/><path d="M516.0256,731.875 Q516.1819,731.6563 516.3694,731.5469 Q516.5569,731.4375 516.7756,731.4375 Q517.1506,731.4375 517.385,731.7031 Q517.6194,731.9531 517.6194,732.5625 L517.6194,734.0156 Q517.6194,734.625 517.385,734.8906 Q517.1506,735.1563 516.7756,735.1563 Q516.4319,735.1563 516.2288,734.9531 Q516.0256,734.7656 515.9163,734.25 Q515.8694,733.8906 515.6819,733.7031 Q515.3538,733.3281 514.7444,733.1094 Q514.135,732.8906 513.51,732.8906 Q512.7444,732.8906 512.1038,733.2188 Q511.4788,733.5469 510.9788,734.2969 Q510.4944,735.0469 510.4944,736.0781 L510.4944,737.1719 Q510.4944,738.4063 511.385,739.2344 Q512.2756,740.0469 513.8694,740.0469 Q514.8069,740.0469 515.4631,739.7969 Q515.8538,739.6406 516.2756,739.2031 Q516.5413,738.9375 516.6819,738.8594 Q516.8381,738.7813 517.0413,738.7813 Q517.3694,738.7813 517.6194,739.0469 Q517.885,739.2969 517.885,739.6406 Q517.885,739.9844 517.5413,740.3906 Q517.0413,740.9688 516.2444,741.2969 Q515.1663,741.75 513.8694,741.75 Q512.3538,741.75 511.1506,741.125 Q510.1663,740.625 509.4788,739.5625 Q508.7913,738.4844 508.7913,737.2031 L508.7913,736.0469 Q508.7913,734.7188 509.4006,733.5781 Q510.0256,732.4219 511.1194,731.8125 Q512.2131,731.1875 513.4475,731.1875 Q514.1819,731.1875 514.8225,731.3594 Q515.4788,731.5156 516.0256,731.875 Z " fill="#000000"/><text fill="#000000" font-family="sans-serif" font-size="14" lengthAdjust="spacing" textLength="108" x="527.26" y="741.7285">NormalResponse</text></g><!--MD5=[8f92636968cc0fb53e5c9a6db43225a1]
class EchoResponse--><g id="elem_EchoResponse"><rect codeLine="49" fill="#F1F1F1" height="32" id="EchoResponse" rx="2.5" ry="2.5" style="stroke:#181818;stroke-width:0.5;" width="128" x="172.26" y="720"/><ellipse cx="187.26" cy="736" fill="#ADD1B2" rx="11" ry="11" style="stroke:#181818;stroke-width:1.0;"/><path d="M190.0256,731.875 Q190.1819,731.6563 190.3694,731.5469 Q190.5569,731.4375 190.7756,731.4375 Q191.1506,731.4375 191.385,731.7031 Q191.6194,731.9531 191.6194,732.5625 L191.6194,734.0156 Q191.6194,734.625 191.385,734.8906 Q191.1506,735.1563 190.7756,735.1563 Q190.4319,735.1563 190.2288,734.9531 Q190.0256,734.7656 189.9163,734.25 Q189.8694,733.8906 189.6819,733.7031 Q189.3538,733.3281 188.7444,733.1094 Q188.135,732.8906 187.51,732.8906 Q186.7444,732.8906 186.1038,733.2188 Q185.4788,733.5469 184.9788,734.2969 Q184.4944,735.0469 184.4944,736.0781 L184.4944,737.1719 Q184.4944,738.4063 185.385,739.2344 Q186.2756,740.0469 187.8694,740.0469 Q188.8069,740.0469 189.4631,739.7969 Q189.8538,739.6406 190.2756,739.2031 Q190.5413,738.9375 190.6819,738.8594 Q190.8381,738.7813 191.0413,738.7813 Q191.3694,738.7813 191.6194,739.0469 Q191.885,739.2969 191.885,739.6406 Q191.885,739.9844 191.5413,740.3906 Q191.0413,740.9688 190.2444,741.2969 Q189.1663,741.75 187.8694,741.75 Q186.3538,741.75 185.1506,741.125 Q184.1663,740.625 183.4788,739.5625 Q182.7913,738.4844 182.7913,737.2031 L182.7913,736.0469 Q182.7913,734.7188 183.4006,733.5781 Q184.0256,732.4219 185.1194,731.8125 Q186.2131,731.1875 187.4475,731.1875 Q188.1819,731.1875 188.8225,731.3594 Q189.4788,731.5156 190.0256,731.875 Z " fill="#000000"/><text fill="#000000" font-family="sans-serif" font-size="14" lengthAdjust="spacing" textLength="96" x="201.26" y="741.7285">EchoResponse</text></g><!--MD5=[98c9226c14e8fb4badba04054c265804]
class ScanResponse--><g id="elem_ScanResponse"><rect codeLine="50" fill="#F1F1F1" height="32" id="ScanResponse" rx="2.5" ry="2.5" style="stroke:#181818;stroke-width:0.5;" width="128" x="335.26" y="720"/><ellipse cx="350.26" cy="736" fill="#ADD1B2" rx="11" ry="11" style="stroke:#181818;stroke-width:1.0;"/><path d="M353.0256,731.875 Q353.1819,731.6563 353.3694,731.5469 Q353.5569,731.4375 353.7756,731.4375 Q354.1506,731.4375 354.385,731.7031 Q354.6194,731.9531 354.6194,732.5625 L354.6194,734.0156 Q354.6194,734.625 354.385,734.8906 Q354.1506,735.1563 353.7756,735.1563 Q353.4319,735.1563 353.2288,734.9531 Q353.0256,734.7656 352.9163,734.25 Q352.8694,733.8906 352.6819,733.7031 Q352.3538,733.3281 351.7444,733.1094 Q351.135,732.8906 350.51,732.8906 Q349.7444,732.8906 349.1038,733.2188 Q348.4788,733.5469 347.9788,734.2969 Q347.4944,735.0469 347.4944,736.0781 L347.4944,737.1719 Q347.4944,738.4063 348.385,739.2344 Q349.2756,740.0469 350.8694,740.0469 Q351.8069,740.0469 352.4631,739.7969 Q352.8538,739.6406 353.2756,739.2031 Q353.5413,738.9375 353.6819,738.8594 Q353.8381,738.7813 354.0413,738.7813 Q354.3694,738.7813 354.6194,739.0469 Q354.885,739.2969 354.885,739.6406 Q354.885,739.9844 354.5413,740.3906 Q354.0413,740.9688 353.2444,741.2969 Q352.1663,741.75 350.8694,741.75 Q349.3538,741.75 348.1506,741.125 Q347.1663,740.625 346.4788,739.5625 Q345.7913,738.4844 345.7913,737.2031 L345.7913,736.0469 Q345.7913,734.7188 346.4006,733.5781 Q347.0256,732.4219 348.1194,731.8125 Q349.2131,731.1875 350.4475,731.1875 Q351.1819,731.1875 351.8225,731.3594 Q352.4788,731.5156 353.0256,731.875 Z " fill="#000000"/><text fill="#000000" font-family="sans-serif" font-size="14" lengthAdjust="spacing" textLength="96" x="364.26" y="741.7285">ScanResponse</text></g><!--MD5=[be0c47551b585ad7c2a2e1b6357e10bd]
class AllPOIS--><g id="elem_AllPOIS"><rect codeLine="54" fill="#F1F1F1" height="32" id="AllPOIS" rx="2.5" ry="2.5" style="stroke:#181818;stroke-width:0.5;" width="79" x="1977.76" y="720"/><ellipse cx="1992.76" cy="736" fill="#ADD1B2" rx="11" ry="11" style="stroke:#181818;stroke-width:1.0;"/><path d="M1995.5256,731.875 Q1995.6819,731.6563 1995.8694,731.5469 Q1996.0569,731.4375 1996.2756,731.4375 Q1996.6506,731.4375 1996.885,731.7031 Q1997.1194,731.9531 1997.1194,732.5625 L1997.1194,734.0156 Q1997.1194,734.625 1996.885,734.8906 Q1996.6506,735.1563 1996.2756,735.1563 Q1995.9319,735.1563 1995.7288,734.9531 Q1995.5256,734.7656 1995.4163,734.25 Q1995.3694,733.8906 1995.1819,733.7031 Q1994.8538,733.3281 1994.2444,733.1094 Q1993.635,732.8906 1993.01,732.8906 Q1992.2444,732.8906 1991.6038,733.2188 Q1990.9788,733.5469 1990.4788,734.2969 Q1989.9944,735.0469 1989.9944,736.0781 L1989.9944,737.1719 Q1989.9944,738.4063 1990.885,739.2344 Q1991.7756,740.0469 1993.3694,740.0469 Q1994.3069,740.0469 1994.9631,739.7969 Q1995.3538,739.6406 1995.7756,739.2031 Q1996.0413,738.9375 1996.1819,738.8594 Q1996.3381,738.7813 1996.5413,738.7813 Q1996.8694,738.7813 1997.1194,739.0469 Q1997.385,739.2969 1997.385,739.6406 Q1997.385,739.9844 1997.0413,740.3906 Q1996.5413,740.9688 1995.7444,741.2969 Q1994.6663,741.75 1993.3694,741.75 Q1991.8538,741.75 1990.6506,741.125 Q1989.6663,740.625 1988.9788,739.5625 Q1988.2913,738.4844 1988.2913,737.2031 L1988.2913,736.0469 Q1988.2913,734.7188 1988.9006,733.5781 Q1989.5256,732.4219 1990.6194,731.8125 Q1991.7131,731.1875 1992.9475,731.1875 Q1993.6819,731.1875 1994.3225,731.3594 Q1994.9788,731.5156 1995.5256,731.875 Z " fill="#000000"/><text fill="#000000" font-family="sans-serif" font-size="14" lengthAdjust="spacing" textLength="47" x="2006.76" y="741.7285">AllPOIS</text></g><!--MD5=[d7a052092efb8e821a036db840caf12e]
class ClosestCreek--><g id="elem_ClosestCreek"><rect codeLine="55" fill="#F1F1F1" height="32" id="ClosestCreek" rx="2.5" ry="2.5" style="stroke:#181818;stroke-width:0.5;" width="117" x="1977.76" y="571"/><ellipse cx="1992.76" cy="587" fill="#ADD1B2" rx="11" ry="11" style="stroke:#181818;stroke-width:1.0;"/><path d="M1995.5256,582.875 Q1995.6819,582.6563 1995.8694,582.5469 Q1996.0569,582.4375 1996.2756,582.4375 Q1996.6506,582.4375 1996.885,582.7031 Q1997.1194,582.9531 1997.1194,583.5625 L1997.1194,585.0156 Q1997.1194,585.625 1996.885,585.8906 Q1996.6506,586.1563 1996.2756,586.1563 Q1995.9319,586.1563 1995.7288,585.9531 Q1995.5256,585.7656 1995.4163,585.25 Q1995.3694,584.8906 1995.1819,584.7031 Q1994.8538,584.3281 1994.2444,584.1094 Q1993.635,583.8906 1993.01,583.8906 Q1992.2444,583.8906 1991.6038,584.2188 Q1990.9788,584.5469 1990.4788,585.2969 Q1989.9944,586.0469 1989.9944,587.0781 L1989.9944,588.1719 Q1989.9944,589.4063 1990.885,590.2344 Q1991.7756,591.0469 1993.3694,591.0469 Q1994.3069,591.0469 1994.9631,590.7969 Q1995.3538,590.6406 1995.7756,590.2031 Q1996.0413,589.9375 1996.1819,589.8594 Q1996.3381,589.7813 1996.5413,589.7813 Q1996.8694,589.7813 1997.1194,590.0469 Q1997.385,590.2969 1997.385,590.6406 Q1997.385,590.9844 1997.0413,591.3906 Q1996.5413,591.9688 1995.7444,592.2969 Q1994.6663,592.75 1993.3694,592.75 Q1991.8538,592.75 1990.6506,592.125 Q1989.6663,591.625 1988.9788,590.5625 Q1988.2913,589.4844 1988.2913,588.2031 L1988.2913,587.0469 Q1988.2913,585.7188 1988.9006,584.5781 Q1989.5256,583.4219 1990.6194,582.8125 Q1991.7131,582.1875 1992.9475,582.1875 Q1993.6819,582.1875 1994.3225,582.3594 Q1994.9788,582.5156 1995.5256,582.875 Z " fill="#000000"/><text fill="#000000" font-family="sans-serif" font-size="14" lengthAdjust="spacing" textLength="85" x="2006.76" y="592.7285">ClosestCreek</text></g><!--MD5=[50c0c5139c91e986ea4f68824f22338b]
class POI--><g id="elem_POI"><rect codeLine="56" fill="#F1F1F1" height="32" id="POI" rx="2.5" ry="2.5" style="stroke:#181818;stroke-width:0.5;" width="55" x="1983.76" y="828"/><ellipse cx="1998.76" cy="844" fill="#ADD1B2" rx="11" ry="11" style="stroke:#181818;stroke-width:1.0;"/><path d="M2001.5256,839.875 Q2001.6819,839.6563 2001.8694,839.5469 Q2002.0569,839.4375 2002.2756,839.4375 Q2002.6506,839.4375 2002.885,839.7031 Q2003.1194,839.9531 2003.1194,840.5625 L2003.1194,842.0156 Q2003.1194,842.625 2002.885,842.8906 Q2002.6506,843.1563 2002.2756,843.1563 Q2001.9319,843.1563 2001.7288,842.9531 Q2001.5256,842.7656 2001.4163,842.25 Q2001.3694,841.8906 2001.1819,841.7031 Q2000.8538,841.3281 2000.2444,841.1094 Q1999.635,840.8906 1999.01,840.8906 Q1998.2444,840.8906 1997.6038,841.2188 Q1996.9788,841.5469 1996.4788,842.2969 Q1995.9944,843.0469 1995.9944,844.0781 L1995.9944,845.1719 Q1995.9944,846.4063 1996.885,847.2344 Q1997.7756,848.0469 1999.3694,848.0469 Q2000.3069,848.0469 2000.9631,847.7969 Q2001.3538,847.6406 2001.7756,847.2031 Q2002.0413,846.9375 2002.1819,846.8594 Q2002.3381,846.7813 2002.5413,846.7813 Q2002.8694,846.7813 2003.1194,847.0469 Q2003.385,847.2969 2003.385,847.6406 Q2003.385,847.9844 2003.0413,848.3906 Q2002.5413,848.9688 2001.7444,849.2969 Q2000.6663,849.75 1999.3694,849.75 Q1997.8538,849.75 1996.6506,849.125 Q1995.6663,848.625 1994.9788,847.5625 Q1994.2913,846.4844 1994.2913,845.2031 L1994.2913,844.0469 Q1994.2913,842.7188 1994.9006,841.5781 Q1995.5256,840.4219 1996.6194,839.8125 Q1997.7131,839.1875 1998.9475,839.1875 Q1999.6819,839.1875 2000.3225,839.3594 Q2000.9788,839.5156 2001.5256,839.875 Z " fill="#000000"/><text fill="#000000" font-family="sans-serif" font-size="14" lengthAdjust="spacing" textLength="23" x="2012.76" y="849.7285">POI</text></g><!--MD5=[5a03c33cd5e24e94f97c47a2d4ec401a]
class POIType--><g id="elem_POIType"><rect codeLine="57" fill="#F1F1F1" height="32" id="POIType" rx="2.5" ry="2.5" style="stroke:#181818;stroke-width:0.5;" width="87" x="1977.76" y="928"/><ellipse cx="1992.76" cy="944" fill="#EB937F" rx="11" ry="11" style="stroke:#181818;stroke-width:1.0;"/><path d="M1991.6194,944.7969 L1991.6194,947.2969 L1995.9475,947.2969 L1995.9475,946.375 Q1995.9475,945.7656 1996.1819,945.5 Q1996.4319,945.2344 1996.8069,945.2344 Q1997.1819,945.2344 1997.4163,945.5 Q1997.6506,945.7656 1997.6506,946.375 L1997.6506,949 L1989.6506,949 Q1989.0256,949 1988.76,948.7656 Q1988.51,948.5313 1988.51,948.1406 Q1988.51,947.7656 1988.7756,947.5313 Q1989.0413,947.2969 1989.6506,947.2969 L1989.9163,947.2969 L1989.9163,940.6406 L1989.6506,940.6406 Q1989.0256,940.6406 1988.76,940.4063 Q1988.51,940.1719 1988.51,939.7813 Q1988.51,939.4063 1988.76,939.1719 Q1989.0256,938.9375 1989.6506,938.9375 L1997.2756,938.9375 L1997.2756,941.5313 Q1997.2756,942.1406 1997.0413,942.4063 Q1996.8225,942.6563 1996.4319,942.6563 Q1996.0569,942.6563 1995.8225,942.4063 Q1995.5881,942.1406 1995.5881,941.5313 L1995.5881,940.6406 L1991.6194,940.6406 L1991.6194,943.0938 L1993.1038,943.0938 Q1993.1038,942.4375 1993.2288,942.25 Q1993.4944,941.8438 1993.9631,941.8438 Q1994.3381,941.8438 1994.5725,942.1094 Q1994.8069,942.3594 1994.8069,942.9688 L1994.8069,944.9375 Q1994.8069,945.4844 1994.6819,945.6719 Q1994.4163,946.0625 1993.9631,946.0625 Q1993.4944,946.0625 1993.2288,945.6563 Q1993.1038,945.4688 1993.1038,944.7969 L1991.6194,944.7969 Z " fill="#000000"/><text fill="#000000" font-family="sans-serif" font-size="14" lengthAdjust="spacing" textLength="55" x="2006.76" y="949.7285">POIType</text></g><!--MD5=[62afef15b0c786cba4093d674577b1e5]
class IExplorerRaid--><g id="elem_IExplorerRaid"><rect codeLine="2" fill="#F1F1F1" height="110.4375" id="IExplorerRaid" rx="2.5" ry="2.5" style="stroke:#181818;stroke-width:0.5;" width="276" x="48.26" y="7"/><ellipse cx="139.51" cy="23" fill="#B4A7E5" rx="11" ry="11" style="stroke:#181818;stroke-width:1.0;"/><path d="M140.4631,19.6406 L140.4631,26.2969 L142.1819,26.2969 Q142.7913,26.2969 143.0569,26.5313 Q143.3225,26.7656 143.3225,27.1563 Q143.3225,27.5313 143.0569,27.7656 Q142.7913,28 142.1819,28 L137.0413,28 Q136.4319,28 136.1663,27.7656 Q135.9006,27.5313 135.9006,27.1406 Q135.9006,26.7656 136.1663,26.5313 Q136.4319,26.2969 137.0413,26.2969 L138.76,26.2969 L138.76,19.6406 L137.0413,19.6406 Q136.4319,19.6406 136.1663,19.4063 Q135.9006,19.1719 135.9006,18.7813 Q135.9006,18.4063 136.1663,18.1719 Q136.4319,17.9375 137.0413,17.9375 L142.1819,17.9375 Q142.7913,17.9375 143.0569,18.1719 Q143.3225,18.4063 143.3225,18.7813 Q143.3225,19.1719 143.0569,19.4063 Q142.7913,19.6406 142.1819,19.6406 L140.4631,19.6406 Z " fill="#000000"/><text fill="#000000" font-family="sans-serif" font-size="14" font-style="italic" lengthAdjust="spacing" textLength="85" x="160.01" y="28.7285">IExplorerRaid</text><line style="stroke:#181818;stroke-width:0.5;" x1="49.26" x2="323.26" y1="39" y2="39"/><text fill="#000000" font-family="sans-serif" font-size="14" lengthAdjust="spacing" textLength="187" x="54.26" y="57.5332">initialize(context : String): void</text><text fill="#000000" font-family="sans-serif" font-size="14" lengthAdjust="spacing" textLength="136" x="54.26" y="75.1426">takeDecision(): String</text><text fill="#000000" font-family="sans-serif" font-size="14" lengthAdjust="spacing" textLength="264" x="54.26" y="92.752">acknowledgeResults(results : String): void</text><text fill="#000000" font-family="sans-serif" font-size="14" lengthAdjust="spacing" textLength="160" x="54.26" y="110.3613">deliverFinalReport(): void</text></g><!--MD5=[8c7d7abc12e214c3cc12c9ab70edee11]
class Coordinate--><g id="elem_Coordinate"><rect codeLine="73" fill="#F1F1F1" height="32" id="Coordinate" rx="2.5" ry="2.5" style="stroke:#181818;stroke-width:0.5;" width="102" x="1542.26" y="928"/><ellipse cx="1557.26" cy="944" fill="#ADD1B2" rx="11" ry="11" style="stroke:#181818;stroke-width:1.0;"/><path d="M1560.0256,939.875 Q1560.1819,939.6563 1560.3694,939.5469 Q1560.5569,939.4375 1560.7756,939.4375 Q1561.1506,939.4375 1561.385,939.7031 Q1561.6194,939.9531 1561.6194,940.5625 L1561.6194,942.0156 Q1561.6194,942.625 1561.385,942.8906 Q1561.1506,943.1563 1560.7756,943.1563 Q1560.4319,943.1563 1560.2288,942.9531 Q1560.0256,942.7656 1559.9163,942.25 Q1559.8694,941.8906 1559.6819,941.7031 Q1559.3538,941.3281 1558.7444,941.1094 Q1558.135,940.8906 1557.51,940.8906 Q1556.7444,940.8906 1556.1038,941.2188 Q1555.4788,941.5469 1554.9788,942.2969 Q1554.4944,943.0469 1554.4944,944.0781 L1554.4944,945.1719 Q1554.4944,946.4063 1555.385,947.2344 Q1556.2756,948.0469 1557.8694,948.0469 Q1558.8069,948.0469 1559.4631,947.7969 Q1559.8538,947.6406 1560.2756,947.2031 Q1560.5413,946.9375 1560.6819,946.8594 Q1560.8381,946.7813 1561.0413,946.7813 Q1561.3694,946.7813 1561.6194,947.0469 Q1561.885,947.2969 1561.885,947.6406 Q1561.885,947.9844 1561.5413,948.3906 Q1561.0413,948.9688 1560.2444,949.2969 Q1559.1663,949.75 1557.8694,949.75 Q1556.3538,949.75 1555.1506,949.125 Q1554.1663,948.625 1553.4788,947.5625 Q1552.7913,946.4844 1552.7913,945.2031 L1552.7913,944.0469 Q1552.7913,942.7188 1553.4006,941.5781 Q1554.0256,940.4219 1555.1194,939.8125 Q1556.2131,939.1875 1557.4475,939.1875 Q1558.1819,939.1875 1558.8225,939.3594 Q1559.4788,939.5156 1560.0256,939.875 Z " fill="#000000"/><text fill="#000000" font-family="sans-serif" font-size="14" lengthAdjust="spacing" textLength="70" x="1571.26" y="949.7285">Coordinate</text></g><!--MD5=[93dd4858e47b96a75520f02d4eb7c3df]
class Scan--><g id="elem_Scan"><rect codeLine="65" fill="#F1F1F1" height="92.8281" id="Scan" rx="2.5" ry="2.5" style="stroke:#181818;stroke-width:0.5;" width="257" x="163.76" y="269"/><ellipse cx="272.01" cy="285" fill="#B4A7E5" rx="11" ry="11" style="stroke:#181818;stroke-width:1.0;"/><path d="M272.9631,281.6406 L272.9631,288.2969 L274.6819,288.2969 Q275.2913,288.2969 275.5569,288.5313 Q275.8225,288.7656 275.8225,289.1563 Q275.8225,289.5313 275.5569,289.7656 Q275.2913,290 274.6819,290 L269.5413,290 Q268.9319,290 268.6663,289.7656 Q268.4006,289.5313 268.4006,289.1406 Q268.4006,288.7656 268.6663,288.5313 Q268.9319,288.2969 269.5413,288.2969 L271.26,288.2969 L271.26,281.6406 L269.5413,281.6406 Q268.9319,281.6406 268.6663,281.4063 Q268.4006,281.1719 268.4006,280.7813 Q268.4006,280.4063 268.6663,280.1719 Q268.9319,279.9375 269.5413,279.9375 L274.6819,279.9375 Q275.2913,279.9375 275.5569,280.1719 Q275.8225,280.4063 275.8225,280.7813 Q275.8225,281.1719 275.5569,281.4063 Q275.2913,281.6406 274.6819,281.6406 L272.9631,281.6406 Z " fill="#000000"/><text fill="#000000" font-family="sans-serif" font-size="14" font-style="italic" lengthAdjust="spacing" textLength="32" x="292.51" y="290.7285">Scan</text><line style="stroke:#181818;stroke-width:0.5;" x1="164.76" x2="419.76" y1="301" y2="301"/><text fill="#000000" font-family="sans-serif" font-size="14" lengthAdjust="spacing" textLength="99" x="169.76" y="319.5332">decide(): Action</text><text fill="#000000" font-family="sans-serif" font-size="14" lengthAdjust="spacing" textLength="245" x="169.76" y="337.1426">react(responseObj : JSONObject): void</text><text fill="#000000" font-family="sans-serif" font-size="14" lengthAdjust="spacing" textLength="155" x="169.76" y="354.752">generateReport(): String</text></g><!--MD5=[ca5423edb2a4f71a12a9e003a5dc88e9]
class Interlaced--><g id="elem_Interlaced"><rect codeLine="70" fill="#F1F1F1" height="32" id="Interlaced" rx="2.5" ry="2.5" style="stroke:#181818;stroke-width:0.5;" width="94" x="632.26" y="422"/><ellipse cx="647.26" cy="438" fill="#ADD1B2" rx="11" ry="11" style="stroke:#181818;stroke-width:1.0;"/><path d="M650.0256,433.875 Q650.1819,433.6563 650.3694,433.5469 Q650.5569,433.4375 650.7756,433.4375 Q651.1506,433.4375 651.385,433.7031 Q651.6194,433.9531 651.6194,434.5625 L651.6194,436.0156 Q651.6194,436.625 651.385,436.8906 Q651.1506,437.1563 650.7756,437.1563 Q650.4319,437.1563 650.2288,436.9531 Q650.0256,436.7656 649.9163,436.25 Q649.8694,435.8906 649.6819,435.7031 Q649.3538,435.3281 648.7444,435.1094 Q648.135,434.8906 647.51,434.8906 Q646.7444,434.8906 646.1038,435.2188 Q645.4788,435.5469 644.9788,436.2969 Q644.4944,437.0469 644.4944,438.0781 L644.4944,439.1719 Q644.4944,440.4063 645.385,441.2344 Q646.2756,442.0469 647.8694,442.0469 Q648.8069,442.0469 649.4631,441.7969 Q649.8538,441.6406 650.2756,441.2031 Q650.5413,440.9375 650.6819,440.8594 Q650.8381,440.7813 651.0413,440.7813 Q651.3694,440.7813 651.6194,441.0469 Q651.885,441.2969 651.885,441.6406 Q651.885,441.9844 651.5413,442.3906 Q651.0413,442.9688 650.2444,443.2969 Q649.1663,443.75 647.8694,443.75 Q646.3538,443.75 645.1506,443.125 Q644.1663,442.625 643.4788,441.5625 Q642.7913,440.4844 642.7913,439.2031 L642.7913,438.0469 Q642.7913,436.7188 643.4006,435.5781 Q644.0256,434.4219 645.1194,433.8125 Q646.2131,433.1875 647.4475,433.1875 Q648.1819,433.1875 648.8225,433.3594 Q649.4788,433.5156 650.0256,433.875 Z " fill="#000000"/><text fill="#000000" font-family="sans-serif" font-size="14" lengthAdjust="spacing" textLength="62" x="661.26" y="443.7285">Interlaced</text></g><!--MD5=[2e3f1e60e74253ff42e47f8bfdb04ee2]
class Drone--><g id="elem_Drone"><rect codeLine="72" fill="#F1F1F1" height="32" id="Drone" rx="2.5" ry="2.5" style="stroke:#181818;stroke-width:0.5;" width="71" x="918.76" y="720"/><ellipse cx="933.76" cy="736" fill="#ADD1B2" rx="11" ry="11" style="stroke:#181818;stroke-width:1.0;"/><path d="M936.5256,731.875 Q936.6819,731.6563 936.8694,731.5469 Q937.0569,731.4375 937.2756,731.4375 Q937.6506,731.4375 937.885,731.7031 Q938.1194,731.9531 938.1194,732.5625 L938.1194,734.0156 Q938.1194,734.625 937.885,734.8906 Q937.6506,735.1563 937.2756,735.1563 Q936.9319,735.1563 936.7288,734.9531 Q936.5256,734.7656 936.4163,734.25 Q936.3694,733.8906 936.1819,733.7031 Q935.8538,733.3281 935.2444,733.1094 Q934.635,732.8906 934.01,732.8906 Q933.2444,732.8906 932.6038,733.2188 Q931.9788,733.5469 931.4788,734.2969 Q930.9944,735.0469 930.9944,736.0781 L930.9944,737.1719 Q930.9944,738.4063 931.885,739.2344 Q932.7756,740.0469 934.3694,740.0469 Q935.3069,740.0469 935.9631,739.7969 Q936.3538,739.6406 936.7756,739.2031 Q937.0413,738.9375 937.1819,738.8594 Q937.3381,738.7813 937.5413,738.7813 Q937.8694,738.7813 938.1194,739.0469 Q938.385,739.2969 938.385,739.6406 Q938.385,739.9844 938.0413,740.3906 Q937.5413,740.9688 936.7444,741.2969 Q935.6663,741.75 934.3694,741.75 Q932.8538,741.75 931.6506,741.125 Q930.6663,740.625 929.9788,739.5625 Q929.2913,738.4844 929.2913,737.2031 L929.2913,736.0469 Q929.2913,734.7188 929.9006,733.5781 Q930.5256,732.4219 931.6194,731.8125 Q932.7131,731.1875 933.9475,731.1875 Q934.6819,731.1875 935.3225,731.3594 Q935.9788,731.5156 936.5256,731.875 Z " fill="#000000"/><text fill="#000000" font-family="sans-serif" font-size="14" lengthAdjust="spacing" textLength="39" x="947.76" y="741.7285">Drone</text></g><!--MD5=[58299f72e519a9852937d5dfab00b46a]
class Explorer--><g id="elem_Explorer"><rect codeLine="81" fill="#F1F1F1" height="32" id="Explorer" rx="2.5" ry="2.5" style="stroke:#181818;stroke-width:0.5;" width="84" x="250.26" y="177"/><ellipse cx="265.26" cy="193" fill="#ADD1B2" rx="11" ry="11" style="stroke:#181818;stroke-width:1.0;"/><path d="M268.0256,188.875 Q268.1819,188.6563 268.3694,188.5469 Q268.5569,188.4375 268.7756,188.4375 Q269.1506,188.4375 269.385,188.7031 Q269.6194,188.9531 269.6194,189.5625 L269.6194,191.0156 Q269.6194,191.625 269.385,191.8906 Q269.1506,192.1563 268.7756,192.1563 Q268.4319,192.1563 268.2288,191.9531 Q268.0256,191.7656 267.9163,191.25 Q267.8694,190.8906 267.6819,190.7031 Q267.3538,190.3281 266.7444,190.1094 Q266.135,189.8906 265.51,189.8906 Q264.7444,189.8906 264.1038,190.2188 Q263.4788,190.5469 262.9788,191.2969 Q262.4944,192.0469 262.4944,193.0781 L262.4944,194.1719 Q262.4944,195.4063 263.385,196.2344 Q264.2756,197.0469 265.8694,197.0469 Q266.8069,197.0469 267.4631,196.7969 Q267.8538,196.6406 268.2756,196.2031 Q268.5413,195.9375 268.6819,195.8594 Q268.8381,195.7813 269.0413,195.7813 Q269.3694,195.7813 269.6194,196.0469 Q269.885,196.2969 269.885,196.6406 Q269.885,196.9844 269.5413,197.3906 Q269.0413,197.9688 268.2444,198.2969 Q267.1663,198.75 265.8694,198.75 Q264.3538,198.75 263.1506,198.125 Q262.1663,197.625 261.4788,196.5625 Q260.7913,195.4844 260.7913,194.2031 L260.7913,193.0469 Q260.7913,191.7188 261.4006,190.5781 Q262.0256,189.4219 263.1194,188.8125 Q264.2131,188.1875 265.4475,188.1875 Q266.1819,188.1875 266.8225,188.3594 Q267.4788,188.5156 268.0256,188.875 Z " fill="#000000"/><text fill="#000000" font-family="sans-serif" font-size="14" lengthAdjust="spacing" textLength="52" x="279.26" y="198.7285">Explorer</text></g><!--MD5=[cd45b77dafe01d3c8a27bbc3fefc2e35]
class Runner--><g id="elem_Runner"><rect codeLine="75" fill="#F1F1F1" height="32" id="Runner" rx="2.5" ry="2.5" style="stroke:#181818;stroke-width:0.5;" width="79" x="359.76" y="46"/><ellipse cx="374.76" cy="62" fill="#ADD1B2" rx="11" ry="11" style="stroke:#181818;stroke-width:1.0;"/><path d="M377.5256,57.875 Q377.6819,57.6563 377.8694,57.5469 Q378.0569,57.4375 378.2756,57.4375 Q378.6506,57.4375 378.885,57.7031 Q379.1194,57.9531 379.1194,58.5625 L379.1194,60.0156 Q379.1194,60.625 378.885,60.8906 Q378.6506,61.1563 378.2756,61.1563 Q377.9319,61.1563 377.7288,60.9531 Q377.5256,60.7656 377.4163,60.25 Q377.3694,59.8906 377.1819,59.7031 Q376.8538,59.3281 376.2444,59.1094 Q375.635,58.8906 375.01,58.8906 Q374.2444,58.8906 373.6038,59.2188 Q372.9788,59.5469 372.4788,60.2969 Q371.9944,61.0469 371.9944,62.0781 L371.9944,63.1719 Q371.9944,64.4063 372.885,65.2344 Q373.7756,66.0469 375.3694,66.0469 Q376.3069,66.0469 376.9631,65.7969 Q377.3538,65.6406 377.7756,65.2031 Q378.0413,64.9375 378.1819,64.8594 Q378.3381,64.7813 378.5413,64.7813 Q378.8694,64.7813 379.1194,65.0469 Q379.385,65.2969 379.385,65.6406 Q379.385,65.9844 379.0413,66.3906 Q378.5413,66.9688 377.7444,67.2969 Q376.6663,67.75 375.3694,67.75 Q373.8538,67.75 372.6506,67.125 Q371.6663,66.625 370.9788,65.5625 Q370.2913,64.4844 370.2913,63.2031 L370.2913,62.0469 Q370.2913,60.7188 370.9006,59.5781 Q371.5256,58.4219 372.6194,57.8125 Q373.7131,57.1875 374.9475,57.1875 Q375.6819,57.1875 376.3225,57.3594 Q376.9788,57.5156 377.5256,57.875 Z " fill="#000000"/><text fill="#000000" font-family="sans-serif" font-size="14" lengthAdjust="spacing" textLength="47" x="388.76" y="67.7285">Runner</text></g><!--MD5=[d75e41f167885d517fe38be6fe621d51]
class ScanStatus--><g id="elem_ScanStatus"><rect codeLine="76" fill="#F1F1F1" height="32" id="ScanStatus" rx="2.5" ry="2.5" style="stroke:#181818;stroke-width:0.5;" width="104" x="1007.26" y="828"/><ellipse cx="1022.26" cy="844" fill="#EB937F" rx="11" ry="11" style="stroke:#181818;stroke-width:1.0;"/><path d="M1021.1194,844.7969 L1021.1194,847.2969 L1025.4475,847.2969 L1025.4475,846.375 Q1025.4475,845.7656 1025.6819,845.5 Q1025.9319,845.2344 1026.3069,845.2344 Q1026.6819,845.2344 1026.9163,845.5 Q1027.1506,845.7656 1027.1506,846.375 L1027.1506,849 L1019.1506,849 Q1018.5256,849 1018.26,848.7656 Q1018.01,848.5313 1018.01,848.1406 Q1018.01,847.7656 1018.2756,847.5313 Q1018.5413,847.2969 1019.1506,847.2969 L1019.4163,847.2969 L1019.4163,840.6406 L1019.1506,840.6406 Q1018.5256,840.6406 1018.26,840.4063 Q1018.01,840.1719 1018.01,839.7813 Q1018.01,839.4063 1018.26,839.1719 Q1018.5256,838.9375 1019.1506,838.9375 L1026.7756,838.9375 L1026.7756,841.5313 Q1026.7756,842.1406 1026.5413,842.4063 Q1026.3225,842.6563 1025.9319,842.6563 Q1025.5569,842.6563 1025.3225,842.4063 Q1025.0881,842.1406 1025.0881,841.5313 L1025.0881,840.6406 L1021.1194,840.6406 L1021.1194,843.0938 L1022.6038,843.0938 Q1022.6038,842.4375 1022.7288,842.25 Q1022.9944,841.8438 1023.4631,841.8438 Q1023.8381,841.8438 1024.0725,842.1094 Q1024.3069,842.3594 1024.3069,842.9688 L1024.3069,844.9375 Q1024.3069,845.4844 1024.1819,845.6719 Q1023.9163,846.0625 1023.4631,846.0625 Q1022.9944,846.0625 1022.7288,845.6563 Q1022.6038,845.4688 1022.6038,844.7969 L1021.1194,844.7969 Z " fill="#000000"/><text fill="#000000" font-family="sans-serif" font-size="14" lengthAdjust="spacing" textLength="72" x="1036.26" y="849.7285">ScanStatus</text></g><!--MD5=[ff3d20c1112759d46dde2fcead238479]
class Value--><g id="elem_Value"><rect codeLine="77" fill="#F1F1F1" height="32" id="Value" rx="2.5" ry="2.5" style="stroke:#181818;stroke-width:0.5;" width="68" x="744.26" y="720"/><ellipse cx="759.26" cy="736" fill="#ADD1B2" rx="11" ry="11" style="stroke:#181818;stroke-width:1.0;"/><path d="M762.0256,731.875 Q762.1819,731.6563 762.3694,731.5469 Q762.5569,731.4375 762.7756,731.4375 Q763.1506,731.4375 763.385,731.7031 Q763.6194,731.9531 763.6194,732.5625 L763.6194,734.0156 Q763.6194,734.625 763.385,734.8906 Q763.1506,735.1563 762.7756,735.1563 Q762.4319,735.1563 762.2288,734.9531 Q762.0256,734.7656 761.9163,734.25 Q761.8694,733.8906 761.6819,733.7031 Q761.3538,733.3281 760.7444,733.1094 Q760.135,732.8906 759.51,732.8906 Q758.7444,732.8906 758.1038,733.2188 Q757.4788,733.5469 756.9788,734.2969 Q756.4944,735.0469 756.4944,736.0781 L756.4944,737.1719 Q756.4944,738.4063 757.385,739.2344 Q758.2756,740.0469 759.8694,740.0469 Q760.8069,740.0469 761.4631,739.7969 Q761.8538,739.6406 762.2756,739.2031 Q762.5413,738.9375 762.6819,738.8594 Q762.8381,738.7813 763.0413,738.7813 Q763.3694,738.7813 763.6194,739.0469 Q763.885,739.2969 763.885,739.6406 Q763.885,739.9844 763.5413,740.3906 Q763.0413,740.9688 762.2444,741.2969 Q761.1663,741.75 759.8694,741.75 Q758.3538,741.75 757.1506,741.125 Q756.1663,740.625 755.4788,739.5625 Q754.7913,738.4844 754.7913,737.2031 L754.7913,736.0469 Q754.7913,734.7188 755.4006,733.5781 Q756.0256,732.4219 757.1194,731.8125 Q758.2131,731.1875 759.4475,731.1875 Q760.1819,731.1875 760.8225,731.3594 Q761.4788,731.5156 762.0256,731.875 Z " fill="#000000"/><text fill="#000000" font-family="sans-serif" font-size="14" lengthAdjust="spacing" textLength="36" x="773.26" y="741.7285">Value</text></g><!--MD5=[061824e27da1a992e998d7d362dcfbf9]
link Action to ActionType--><g id="link_Action_ActionType"><path codeLine="12" d="M712.26,860.31 C712.26,877 712.26,903.78 712.26,922.33 " fill="none" id="Action-to-ActionType" style="stroke:#181818;stroke-width:1.0;"/><polygon fill="#181818" points="712.26,927.8,716.2857,918.8115,712.2743,922.8,708.2857,918.7886,712.26,927.8" style="stroke:#181818;stroke-width:1.0;"/></g><!--MD5=[69e6ab60533cc89f46de3aeb48aa40d6]
link Action to Directions--><g id="link_Action_Directions"><path codeLine="14" d="M748.07,854.04 C758.83,857.56 770.39,862.17 780.26,868 C800.86,880.165 820.7425,898.1425 835.7688,913.4475 C843.2819,921.1 849.5809,928.0844 854.1486,933.34 " fill="none" id="Action-to-Directions" style="stroke:#181818;stroke-width:1.0;"/><polygon fill="#181818" points="854.1486,933.34,851.2639,923.9231,850.8687,929.5661,845.2257,929.1709,854.1486,933.34" style="stroke:#181818;stroke-width:1.0;"/></g><!--MD5=[69de8902a4dbce126d7174b882f58466]
reverse link Phase to FindCorner--><g id="link_Phase_FindCorner"><path d="M1209.38,678.54 C1202,694.49 1195.14,709.32 1190.3,719.77 " fill="none" id="Phase-backto-FindCorner" style="stroke:#181818;stroke-width:1.0;stroke-dasharray:7.0,7.0;"/><polygon fill="none" points="1203.11,675.42,1217.86,660.21,1215.81,681.3,1203.11,675.42" style="stroke:#181818;stroke-width:1.0;"/></g><!--MD5=[ed343c0be936a4bce3a1d7195075cfa9]
reverse link Phase to FindIsland--><g id="link_Phase_FindIsland"><path d="M1293.14,678.54 C1300.52,694.49 1307.38,709.32 1312.21,719.77 " fill="none" id="Phase-backto-FindIsland" style="stroke:#181818;stroke-width:1.0;stroke-dasharray:7.0,7.0;"/><polygon fill="none" points="1286.7,681.3,1284.66,660.21,1299.41,675.42,1286.7,681.3" style="stroke:#181818;stroke-width:1.0;"/></g><!--MD5=[b133f98a0af914eb316416f4bb9f676a]
reverse link Phase to ResetLeft--><g id="link_Phase_ResetLeft"><path d="M1364.82,672.31 C1389.45,690.6 1412.85,707.97 1428.75,719.77 " fill="none" id="Phase-backto-ResetLeft" style="stroke:#181818;stroke-width:1.0;stroke-dasharray:7.0,7.0;"/><polygon fill="none" points="1360.4,677.75,1348.52,660.21,1368.75,666.51,1360.4,677.75" style="stroke:#181818;stroke-width:1.0;"/></g><!--MD5=[1d9d2a3991f7137dc1ac044cd16e683b]
reverse link Phase to ResetRight--><g id="link_Phase_ResetRight"><path d="M1381.36,645.78 C1441.77,672.61 1508.79,702.37 1548.13,719.84 " fill="none" id="Phase-backto-ResetRight" style="stroke:#181818;stroke-width:1.0;stroke-dasharray:7.0,7.0;"/><polygon fill="none" points="1378.3,652.08,1362.86,637.56,1383.98,639.28,1378.3,652.08" style="stroke:#181818;stroke-width:1.0;"/></g><!--MD5=[cc88e9abbea04ce395ebd71cc984b2ca]
reverse link Phase to ScanLine--><g id="link_Phase_ScanLine"><path d="M1382.12,629.55 C1477.99,659.99 1602.47,699.51 1668.47,720.46 " fill="none" id="Phase-backto-ScanLine" style="stroke:#181818;stroke-width:1.0;stroke-dasharray:7.0,7.0;"/><polygon fill="none" points="1379.99,636.21,1363.04,623.49,1384.22,622.87,1379.99,636.21" style="stroke:#181818;stroke-width:1.0;"/></g><!--MD5=[640cf1a6ba56ef9b07add9087b23f081]
reverse link Phase to TravelToIsland--><g id="link_Phase_TravelToIsland"><path d="M1382.52,619.79 C1510.36,650.75 1699.15,696.47 1795.98,719.92 " fill="none" id="Phase-backto-TravelToIsland" style="stroke:#181818;stroke-width:1.0;stroke-dasharray:7.0,7.0;"/><polygon fill="none" points="1380.74,626.56,1362.95,615.05,1384.03,612.95,1380.74,626.56" style="stroke:#181818;stroke-width:1.0;"/></g><!--MD5=[bcd5854f242046b63e89fd891efed968]
reverse link Phase to UTurn--><g id="link_Phase_UTurn"><path d="M1141.38,672.57 C1117.74,690.76 1095.3,708.03 1080.05,719.77 " fill="none" id="Phase-backto-UTurn" style="stroke:#181818;stroke-width:1.0;stroke-dasharray:7.0,7.0;"/><polygon fill="none" points="1137.32,666.86,1157.44,660.21,1145.86,677.95,1137.32,666.86" style="stroke:#181818;stroke-width:1.0;"/></g><!--MD5=[2e1971099fa63fccf77cb865ec41d823]
reverse link Response to NormalResponse--><g id="link_Response_NormalResponse"><path d="M552.41,662.18 C557.16,684.02 561.9,705.78 564.94,719.74 " fill="none" id="Response-backto-NormalResponse" style="stroke:#181818;stroke-width:1.0;stroke-dasharray:7.0,7.0;"/><polygon fill="none" points="545.5,663.35,548.08,642.32,559.18,660.37,545.5,663.35" style="stroke:#181818;stroke-width:1.0;"/></g><!--MD5=[a1cc41d74eaf2575d80fa578261fe047]
reverse link Response to EchoResponse--><g id="link_Response_EchoResponse"><path d="M415.72,647.06 C361.52,673.62 301.97,702.8 266.92,719.98 " fill="none" id="Response-backto-EchoResponse" style="stroke:#181818;stroke-width:1.0;stroke-dasharray:7.0,7.0;"/><polygon fill="none" points="412.81,640.69,433.85,638.18,418.97,653.26,412.81,640.69" style="stroke:#181818;stroke-width:1.0;"/></g><!--MD5=[b59da2de0fb50df263394b418e1ac8aa]
reverse link Response to ScanResponse--><g id="link_Response_ScanResponse"><path d="M471.8,657.17 C449.92,680.64 427.49,704.71 413.48,719.74 " fill="none" id="Response-backto-ScanResponse" style="stroke:#181818;stroke-width:1.0;stroke-dasharray:7.0,7.0;"/><polygon fill="none" points="466.88,652.18,485.63,642.32,477.12,661.72,466.88,652.18" style="stroke:#181818;stroke-width:1.0;"/></g><!--MD5=[6dc730e659e5eac942aee811b519cc6b]
link POI to POIType--><g id="link_POI_POIType"><path codeLine="59" d="M2012.82,860.31 C2014.54,877.14 2017.3,904.24 2019.2,922.8 " fill="none" id="POI-to-POIType" style="stroke:#181818;stroke-width:1.0;"/><polygon fill="#181818" points="2019.71,927.8,2022.7627,918.4362,2019.1955,922.8265,2014.8051,919.2594,2019.71,927.8" style="stroke:#181818;stroke-width:1.0;"/></g><!--MD5=[4b067e8ed1d330c21a2fa3050681c6d1]
reverse link ClosestCreek to AllPOIS--><g id="link_ClosestCreek_AllPOIS"><path codeLine="60" d="M2032.59,616.36 C2028.61,647.18 2022.39,695.28 2019.24,719.68 " fill="none" id="ClosestCreek-backto-AllPOIS" style="stroke:#181818;stroke-width:1.0;"/><polygon fill="none" points="2034.3,603.18,2029.5674,608.6208,2032.7694,615.082,2037.502,609.6412,2034.3,603.18" style="stroke:#181818;stroke-width:1.0;"/></g><!--MD5=[3967fc7a0a045b99dc66695d5e3989d9]
reverse link AllPOIS to POI--><g id="link_AllPOIS_POI"><path codeLine="61" d="M2015.66,765.22 C2014.52,785.32 2013.04,811.56 2012.12,827.84 " fill="none" id="AllPOIS-backto-POI" style="stroke:#181818;stroke-width:1.0;"/><polygon fill="#181818" points="2016.4,752.19,2012.0702,757.9565,2015.7278,764.1712,2020.0576,758.4046,2016.4,752.19" style="stroke:#181818;stroke-width:1.0;"/></g><!--MD5=[5e1df4a52d579f1a0d5976a0dbd28317]
reverse link POI to Coordinate--><g id="link_POI_Coordinate"><path codeLine="63" d="M1970.73,854.5 C1894.23,872.44 1728.72,911.24 1644.59,930.97 " fill="none" id="POI-backto-Coordinate" style="stroke:#181818;stroke-width:1.0;"/><polygon fill="#181818" points="1983.51,851.51,1976.7546,848.9872,1971.8276,854.2526,1978.583,856.7754,1983.51,851.51" style="stroke:#181818;stroke-width:1.0;"/></g><!--MD5=[3bbc2f47a19d0621e88c837a601ac706]
reverse link Scan to Interlaced--><g id="link_Scan_Interlaced"><path d="M440.28,362.59 C508.36,383.79 584.39,407.46 632.03,422.3 " fill="none" id="Scan-backto-Interlaced" style="stroke:#181818;stroke-width:1.0;stroke-dasharray:7.0,7.0;"/><polygon fill="none" points="437.87,369.17,420.86,356.54,442.03,355.8,437.87,369.17" style="stroke:#181818;stroke-width:1.0;"/></g><!--MD5=[41e8174986ada6be8dbf4858a7303c61]
reverse link IExplorerRaid to Explorer--><g id="link_IExplorerRaid_Explorer"><path d="M243.71,132.92 C257.35,149.52 270.6,165.64 279.8,176.84 " fill="none" id="IExplorerRaid-backto-Explorer" style="stroke:#181818;stroke-width:1.0;stroke-dasharray:7.0,7.0;"/><polygon fill="none" points="238.19,137.23,230.9,117.33,249.01,128.34,238.19,137.23" style="stroke:#181818;stroke-width:1.0;"/></g><!--MD5=[828c4d31d86dd89ed1227b58a346bc74]
link Runner to Explorer--><g id="link_Runner_Explorer"><path codeLine="83" d="M386.77,78.05 C367.31,101.52 329.74,146.82 308.29,172.67 " fill="none" id="Runner-to-Explorer" style="stroke:#181818;stroke-width:1.0;"/><polygon fill="#181818" points="304.99,176.65,313.8133,172.2741,308.1811,172.8007,307.6545,167.1684,304.99,176.65" style="stroke:#181818;stroke-width:1.0;"/></g><!--MD5=[5d2471bc92fca16fcc86674857ad2c3d]
reverse link Explorer to Scan--><g id="link_Explorer_Scan"><path codeLine="85" d="M292.26,222.34 C292.26,236.17 292.26,253.15 292.26,268.76 " fill="none" id="Explorer-backto-Scan" style="stroke:#181818;stroke-width:1.0;"/><polygon fill="#181818" points="292.26,209.26,288.26,215.26,292.26,221.26,296.26,215.26,292.26,209.26" style="stroke:#181818;stroke-width:1.0;"/></g><!--MD5=[3ddb07503e1a7a3feccc970f2c36acb3]
link Scan to Action--><g id="link_Scan_Action"><path codeLine="87" d="M191.89,362.11 C148.95,387.32 103.25,423.14 79.26,470 C16.98,591.64 6,686.49 109.26,776 C151.75,812.83 542.92,834.84 671.5,841.12 " fill="none" id="Scan-to-Action" style="stroke:#181818;stroke-width:1.0;"/><polygon fill="#181818" points="676.7,841.37,667.9047,836.9381,671.7059,841.1274,667.5165,844.9287,676.7,841.37" style="stroke:#181818;stroke-width:1.0;"/></g><!--MD5=[31f494ee902a22cdd60f116b220aeb11]
reverse link Interlaced to Phase--><g id="link_Interlaced_Phase"><path codeLine="89" d="M739.4,448.54 C771.81,454.06 812.4,461.57 848.26,470 C947.66,493.36 1059.1,525.94 1139.56,550.63 " fill="none" id="Interlaced-backto-Phase" style="stroke:#181818;stroke-width:1.0;"/><polygon fill="#181818" points="726.51,446.38,731.7627,451.3205,738.3435,448.372,733.0908,443.4315,726.51,446.38" style="stroke:#181818;stroke-width:1.0;"/></g><!--MD5=[719002272acd1b67fee8724663b7dc04]
reverse link Interlaced to Drone--><g id="link_Interlaced_Drone"><path codeLine="90" d="M702.27,463.77 C757.41,523.12 895.81,672.09 940.27,719.94 " fill="none" id="Interlaced-backto-Drone" style="stroke:#181818;stroke-width:1.0;"/><polygon fill="#181818" points="693.27,454.09,694.4252,461.208,701.44,462.8793,700.2847,455.7613,693.27,454.09" style="stroke:#181818;stroke-width:1.0;"/></g><!--MD5=[c9e322c11504faf92db3d2856594fcb2]
reverse link Interlaced to ClosestCreek--><g id="link_Interlaced_ClosestCreek"><path codeLine="91" d="M739.68,439.12 C983.26,439.79 1882.72,444.03 1937.26,470 C1982.44,491.52 2014.87,544.49 2028.75,570.74 " fill="none" id="Interlaced-backto-ClosestCreek" style="stroke:#181818;stroke-width:1.0;"/><polygon fill="#181818" points="726.58,439.09,732.5668,443.1098,738.5799,439.1296,732.5932,435.1098,726.58,439.09" style="stroke:#181818;stroke-width:1.0;"/></g><!--MD5=[6765b5fb4bd16c6dac8efae71e0d8f58]
reverse link Interlaced to Response--><g id="link_Interlaced_Response"><path codeLine="92" d="M655.27,463.66 C637.19,482.25 611.7,508.45 588.94,531.84 " fill="none" id="Interlaced-backto-Response" style="stroke:#181818;stroke-width:1.0;"/><polygon fill="#181818" points="664.49,454.18,657.4382,455.6875,656.1175,462.7766,663.1693,461.2691,664.49,454.18" style="stroke:#181818;stroke-width:1.0;"/></g><!--MD5=[5374535ae6e35e5f2f8471f601a1b3b1]
link Interlaced to Action--><g id="link_Interlaced_Action"><path codeLine="93" d="M632.25,440.06 C506.8,443.1 172.46,452.81 156.26,470 C62.98,568.97 66.03,674.24 156.26,776 C190.42,814.53 548.8,835.17 671.4,841.15 " fill="none" id="Interlaced-to-Action" style="stroke:#181818;stroke-width:1.0;"/><polygon fill="#181818" points="676.71,841.4,667.9147,836.9681,671.7159,841.1574,667.5265,844.9587,676.71,841.4" style="stroke:#181818;stroke-width:1.0;"/></g><!--MD5=[9a1e6c750aea324c390077e64e5f6308]
link Drone to Directions--><g id="link_Drone_Directions"><path codeLine="95" d="M944.13,752.08 C928.6,775.81 898.85,823.72 881.26,868 C879.7225,871.87 878.2788,875.9025 876.9286,880.0014 C876.5911,881.0261 876.2594,882.055 875.9335,883.0865 C875.8521,883.3444 875.771,883.6025 875.6902,883.8607 " fill="none" id="Drone-to-Directions" style="stroke:#181818;stroke-width:1.0;"/><polygon fill="#181818" points="875.6902,883.8607,882.1938,876.4645,877.1824,879.0885,874.5584,874.0771,875.6902,883.8607" style="stroke:#181818;stroke-width:1.0;"/></g><!--MD5=[91bde6fec23449ad38a9173fc0d06a16]
link Drone to ScanStatus--><g id="link_Drone_ScanStatus"><path codeLine="96" d="M969.3,752.19 C988.09,771.16 1020.24,803.61 1040.59,824.15 " fill="none" id="Drone-to-ScanStatus" style="stroke:#181818;stroke-width:1.0;"/><polygon fill="#181818" points="1044.24,827.84,1040.7602,818.6264,1040.726,824.2831,1035.0692,824.2488,1044.24,827.84" style="stroke:#181818;stroke-width:1.0;"/></g><!--MD5=[3b8c71cc769439c70d64f82f20198346]
reverse link Drone to Coordinate--><g id="link_Drone_Coordinate"><path codeLine="97" d="M953.75,765.31 C954.93,794.17 961.75,837.75 990.26,860 C999.11,866.91 1181.1,866.74 1192.26,868 C1319.12,882.3 1466.13,913.64 1542.03,930.94 " fill="none" id="Drone-backto-Coordinate" style="stroke:#181818;stroke-width:1.0;"/><polygon fill="#181818" points="953.56,752.12,949.6461,758.1765,953.7314,764.1188,957.6453,758.0623,953.56,752.12" style="stroke:#181818;stroke-width:1.0;"/></g><!--MD5=[f180c99a6d65da363e1a455e3abd5447]
link Drone to Action--><g id="link_Drone_Action"><path codeLine="98" d="M934.29,752.09 C922.39,760.37 906.64,770.12 891.26,776 C872.28,783.25 865.69,778.09 846.26,784 C810.74,794.81 772.14,812.49 745.53,825.68 " fill="none" id="Drone-to-Action" style="stroke:#181818;stroke-width:1.0;"/><polygon fill="#181818" points="741.03,827.92,750.8681,827.4602,745.4993,825.6782,747.2813,820.3094,741.03,827.92" style="stroke:#181818;stroke-width:1.0;"/></g><!--MD5=[5c377f19375b710f29a22a5e06e4878d]
reverse link Phase to Drone--><g id="link_Phase_Drone"><path codeLine="100" d="M1127.58,649.22 C1075.11,675.19 1018.38,703.26 984.62,719.97 " fill="none" id="Phase-backto-Drone" style="stroke:#181818;stroke-width:1.0;"/><polygon fill="none" points="1139.4,643.36,1132.2482,642.4375,1128.6459,648.6843,1135.7977,649.6069,1139.4,643.36" style="stroke:#181818;stroke-width:1.0;"/></g><!--MD5=[7b9553ef295d70d84fb10d2169ad7a43]
reverse link Phase to AllPOIS--><g id="link_Phase_AllPOIS"><path codeLine="101" d="M1376.06,611.95 C1552.9,645.89 1867.15,706.19 1977.57,727.38 " fill="none" id="Phase-backto-AllPOIS" style="stroke:#181818;stroke-width:1.0;"/><polygon fill="none" points="1363.05,609.45,1368.1852,614.5126,1374.8334,611.7196,1369.6982,606.657,1363.05,609.45" style="stroke:#181818;stroke-width:1.0;"/></g><!--MD5=[64416dcc828be6d9a9cb0bc7833dacd4]
link Phase to Value--><g id="link_Phase_Value"><path codeLine="102" d="M1139.46,622.74 C1035.7,654.99 887.07,701.18 817.27,722.88 " fill="none" id="Phase-to-Value" style="stroke:#181818;stroke-width:1.0;"/><polygon fill="#181818" points="812.38,724.39,822.1623,725.5335,817.1539,722.9035,819.7839,717.8952,812.38,724.39" style="stroke:#181818;stroke-width:1.0;"/></g><!--MD5=[4412130272c55bad8c2abbd78dce21c5]
link Phase to Action--><g id="link_Phase_Action"><path codeLine="103" d="M1139.38,620.46 C1068.68,643.29 976.74,677.36 901.26,720 C866.27,739.77 863.61,753.57 830.26,776 C802.95,794.37 770.31,812.64 746.29,825.45 " fill="none" id="Phase-to-Action" style="stroke:#181818;stroke-width:1.0;"/><polygon fill="#181818" points="741.6,827.94,751.4249,827.2539,746.0165,825.596,747.6745,820.1875,741.6,827.94" style="stroke:#181818;stroke-width:1.0;"/></g><!--MD5=[63b5baa59a56ff7547dfbcfd52ab831b]
link Response to Value--><g id="link_Response_Value"><path codeLine="105" d="M625.34,642.11 C668.88,668.56 718.37,698.62 748.96,717.2 " fill="none" id="Response-to-Value" style="stroke:#181818;stroke-width:1.0;"/><polygon fill="#181818" points="753.33,719.86,747.7022,711.7774,749.0527,717.2707,743.5594,718.6211,753.33,719.86" style="stroke:#181818;stroke-width:1.0;"/></g><!--MD5=[1b20b033f0bfadc1da649f4d939a1d60]
link Response to Action--><g id="link_Response_Action"><path codeLine="106" d="M592.67,642.29 C614.3,664.98 638.11,692.46 656.26,720 C678.52,753.8 696.21,797.9 705.38,823.07 " fill="none" id="Response-to-Action" style="stroke:#181818;stroke-width:1.0;"/><polygon fill="#181818" points="707.1,827.84,707.8003,818.0161,705.3993,823.1381,700.2773,820.7372,707.1,827.84" style="stroke:#181818;stroke-width:1.0;"/></g><!--MD5=[193b6a22b8d95ef536625dd271e2c969]
reverse link ScanLine to POI--><g id="link_ScanLine_POI"><path codeLine="108" d="M1746.94,759.22 C1756.72,765.23 1767.67,771.35 1778.26,776 C1849.37,807.21 1939,828.24 1983.53,837.54 " fill="none" id="ScanLine-backto-POI" style="stroke:#181818;stroke-width:1.0;"/><polygon fill="#181818" points="1735.68,752.05,1738.5889,758.6484,1745.7985,758.501,1742.8896,751.9027,1735.68,752.05" style="stroke:#181818;stroke-width:1.0;"/></g><!--MD5=[976e5af532d46b75f27e52918b673790]
@startuml Class Diagram

interface IExplorerRaid {
    initialize(context : String): void
    takeDecision(): String
    acknowledgeResults(results : String): void
    deliverFinalReport(): void
}

package Actions {
    class Action
    enum ActionType
    Action - -> ActionType
}
Action - -> Directions

package Directions {
    enum CardinalDirection
    enum Orientation
    enum RelativeDirection
}

package Phases {
    interface Phase {
        getNextDecision(): Action
        getNextPhase(): Phase
        react(response : Response): void
        reachedEnd(): boolean
        isFinal(): boolean
        getCreeks(): AllPOIS
    }
    class FindCorner implements Phase
    class FindIsland implements Phase
    class ResetLeft implements Phase
    class ResetRight implements Phase
    class ScanLine implements Phase
    class TravelToIsland implements Phase
    class UTurn implements Phase
}


package Responses {
    interface Response {
        getCost(): int
        getStatus(): String
        getType(): ActionType
        getData(): Map<String, Value>
    }
    class NormalResponse implements Response
    class EchoResponse implements Response
    class ScanResponse implements Response
}

package POIs {
    class AllPOIS
    class ClosestCreek
    class POI
    enum POIType
    
    POI - -> POIType
    ClosestCreek o- - AllPOIS
    AllPOIS *- - POI
}
POI *- - Coordinate

interface Scan {
    decide(): Action
    react(responseObj : JSONObject): void
    generateReport(): String
}
class Interlaced implements Scan

class Drone
class Coordinate
class Explorer
class Runner
enum ScanStatus
class Value

hide empty members

class Explorer implements IExplorerRaid

Runner - -> Explorer

Explorer *- - Scan

Scan - -> Action

Interlaced *- - Phase
Interlaced *- - Drone
Interlaced *- - ClosestCreek
Interlaced *- - Response
Interlaced - -> Action

Drone - -> Directions
Drone - -> ScanStatus
Drone *- - Coordinate
Drone - -> Action

Phase o- - Drone
Phase o- - AllPOIS
Phase - -> Value
Phase - -> Action

Response - -> Value
Response - -> Action

ScanLine *- - POI

@enduml

PlantUML version 1.2022.7(Mon Aug 22 13:01:30 EDT 2022)
(GPL source distribution)
Java Runtime: Java(TM) SE Runtime Environment
JVM: Java HotSpot(TM) 64-Bit Server VM
Default Encoding: UTF-8
Language: en
Country: CA
--></g></svg>