<?xml version="1.0" encoding="UTF-8" standalone="no"?><svg xmlns="http://www.w3.org/2000/svg" xmlns:xlink="http://www.w3.org/1999/xlink" contentStyleType="text/css" height="1875px" preserveAspectRatio="none" style="width:938px;height:1875px;background:#FFFFFF;" version="1.1" viewBox="0 0 938 1875" width="938px" zoomAndPan="magnify"><defs/><g><rect fill="#FFFFFF" height="1669.6563" style="stroke:#181818;stroke-width:1.0;" width="10" x="232" y="114.9609"/><rect fill="#FFFFFF" height="1599.9531" style="stroke:#181818;stroke-width:1.0;" width="10" x="421" y="145.3125"/><rect fill="#FFFFFF" height="212.4609" style="stroke:#181818;stroke-width:1.0;" width="10" x="569" y="1391.3984"/><rect fill="#FFFFFF" height="1425.8438" style="stroke:#181818;stroke-width:1.0;" width="10" x="656" y="236.3672"/><rect fill="#FFFFFF" height="1367.4922" style="stroke:#181818;stroke-width:1.0;" width="10" x="792" y="175.6641"/><rect fill="#FFFFFF" height="182.1094" style="stroke:#181818;stroke-width:1.0;" width="10" x="881" y="791.8828"/><rect fill="#FFFFFF" height="121.4063" style="stroke:#181818;stroke-width:1.0;" width="10" x="881" y="1141.5859"/><rect fill="none" height="1403.8438" style="stroke:#000000;stroke-width:1.5;" width="922.5" x="10" y="251.3672"/><rect fill="none" height="933.5703" style="stroke:#000000;stroke-width:1.5;" width="902.5" x="20" y="367.7734"/><rect fill="none" height="259.6484" style="stroke:#000000;stroke-width:1.5;" width="411" x="378" y="393.125"/><line style="stroke:#181818;stroke-width:0.5;stroke-dasharray:5.0,5.0;" x1="74" x2="74" y1="82.6094" y2="1793.6172"/><line style="stroke:#181818;stroke-width:0.5;stroke-dasharray:5.0,5.0;" x1="237" x2="237" y1="82.6094" y2="1793.6172"/><line style="stroke:#181818;stroke-width:0.5;stroke-dasharray:5.0,5.0;" x1="426" x2="426" y1="82.6094" y2="1793.6172"/><line style="stroke:#181818;stroke-width:0.5;stroke-dasharray:5.0,5.0;" x1="574" x2="574" y1="82.6094" y2="1793.6172"/><line style="stroke:#181818;stroke-width:0.5;stroke-dasharray:5.0,5.0;" x1="661" x2="661" y1="82.6094" y2="1793.6172"/><line style="stroke:#181818;stroke-width:0.5;stroke-dasharray:5.0,5.0;" x1="796.5" x2="796.5" y1="82.6094" y2="1793.6172"/><line style="stroke:#181818;stroke-width:0.5;stroke-dasharray:5.0,5.0;" x1="885.5" x2="885.5" y1="82.6094" y2="1793.6172"/><text fill="#000000" font-family="sans-serif" font-size="14" lengthAdjust="spacing" textLength="82" x="30" y="79.5332">GameEngine</text><ellipse cx="74" cy="13.5" fill="#E2E2F0" rx="8" ry="8" style="stroke:#181818;stroke-width:0.5;"/><path d="M74,21.5 L74,48.5 M61,29.5 L87,29.5 M74,48.5 L61,63.5 M74,48.5 L87,63.5 " fill="none" style="stroke:#181818;stroke-width:0.5;"/><text fill="#000000" font-family="sans-serif" font-size="14" lengthAdjust="spacing" textLength="82" x="30" y="1807.1504">GameEngine</text><ellipse cx="74" cy="1818.7266" fill="#E2E2F0" rx="8" ry="8" style="stroke:#181818;stroke-width:0.5;"/><path d="M74,1826.7266 L74,1853.7266 M61,1834.7266 L87,1834.7266 M74,1853.7266 L61,1868.7266 M74,1853.7266 L87,1868.7266 " fill="none" style="stroke:#181818;stroke-width:0.5;"/><rect fill="#E2E2F0" height="31.6094" rx="2.5" ry="2.5" style="stroke:#181818;stroke-width:0.5;" width="66" x="204" y="50"/><text fill="#000000" font-family="sans-serif" font-size="14" lengthAdjust="spacing" textLength="52" x="211" y="71.5332">Explorer</text><rect fill="#E2E2F0" height="31.6094" rx="2.5" ry="2.5" style="stroke:#181818;stroke-width:0.5;" width="66" x="204" y="1792.6172"/><text fill="#000000" font-family="sans-serif" font-size="14" lengthAdjust="spacing" textLength="52" x="211" y="1814.1504">Explorer</text><rect fill="#E2E2F0" height="31.6094" rx="2.5" ry="2.5" style="stroke:#181818;stroke-width:0.5;" width="76" x="388" y="50"/><text fill="#000000" font-family="sans-serif" font-size="14" lengthAdjust="spacing" textLength="62" x="395" y="71.5332">Controller</text><rect fill="#E2E2F0" height="31.6094" rx="2.5" ry="2.5" style="stroke:#181818;stroke-width:0.5;" width="76" x="388" y="1792.6172"/><text fill="#000000" font-family="sans-serif" font-size="14" lengthAdjust="spacing" textLength="62" x="395" y="1814.1504">Controller</text><rect fill="#E2E2F0" height="31.6094" rx="2.5" ry="2.5" style="stroke:#181818;stroke-width:0.5;" width="78" x="535" y="50"/><text fill="#000000" font-family="sans-serif" font-size="14" lengthAdjust="spacing" textLength="64" x="542" y="71.5332">Response</text><rect fill="#E2E2F0" height="31.6094" rx="2.5" ry="2.5" style="stroke:#181818;stroke-width:0.5;" width="78" x="535" y="1792.6172"/><text fill="#000000" font-family="sans-serif" font-size="14" lengthAdjust="spacing" textLength="64" x="542" y="1814.1504">Response</text><rect fill="#E2E2F0" height="31.6094" rx="2.5" ry="2.5" style="stroke:#181818;stroke-width:0.5;" width="54" x="634" y="50"/><text fill="#000000" font-family="sans-serif" font-size="14" lengthAdjust="spacing" textLength="40" x="641" y="71.5332">Phase</text><rect fill="#E2E2F0" height="31.6094" rx="2.5" ry="2.5" style="stroke:#181818;stroke-width:0.5;" width="54" x="634" y="1792.6172"/><text fill="#000000" font-family="sans-serif" font-size="14" lengthAdjust="spacing" textLength="40" x="641" y="1814.1504">Phase</text><rect fill="#E2E2F0" height="31.6094" rx="2.5" ry="2.5" style="stroke:#181818;stroke-width:0.5;" width="53" x="770.5" y="50"/><text fill="#000000" font-family="sans-serif" font-size="14" lengthAdjust="spacing" textLength="39" x="777.5" y="71.5332">Drone</text><rect fill="#E2E2F0" height="31.6094" rx="2.5" ry="2.5" style="stroke:#181818;stroke-width:0.5;" width="53" x="770.5" y="1792.6172"/><text fill="#000000" font-family="sans-serif" font-size="14" lengthAdjust="spacing" textLength="39" x="777.5" y="1814.1504">Drone</text><rect fill="#E2E2F0" height="31.6094" rx="2.5" ry="2.5" style="stroke:#181818;stroke-width:0.5;" width="53" x="859.5" y="50"/><text fill="#000000" font-family="sans-serif" font-size="14" lengthAdjust="spacing" textLength="39" x="866.5" y="71.5332">Action</text><rect fill="#E2E2F0" height="31.6094" rx="2.5" ry="2.5" style="stroke:#181818;stroke-width:0.5;" width="53" x="859.5" y="1792.6172"/><text fill="#000000" font-family="sans-serif" font-size="14" lengthAdjust="spacing" textLength="39" x="866.5" y="1814.1504">Action</text><rect fill="#FFFFFF" height="1669.6563" style="stroke:#181818;stroke-width:1.0;" width="10" x="232" y="114.9609"/><rect fill="#FFFFFF" height="1599.9531" style="stroke:#181818;stroke-width:1.0;" width="10" x="421" y="145.3125"/><rect fill="#FFFFFF" height="212.4609" style="stroke:#181818;stroke-width:1.0;" width="10" x="569" y="1391.3984"/><rect fill="#FFFFFF" height="1425.8438" style="stroke:#181818;stroke-width:1.0;" width="10" x="656" y="236.3672"/><rect fill="#FFFFFF" height="1367.4922" style="stroke:#181818;stroke-width:1.0;" width="10" x="792" y="175.6641"/><rect fill="#FFFFFF" height="182.1094" style="stroke:#181818;stroke-width:1.0;" width="10" x="881" y="791.8828"/><rect fill="#FFFFFF" height="121.4063" style="stroke:#181818;stroke-width:1.0;" width="10" x="881" y="1141.5859"/><polygon fill="#181818" points="220,110.9609,230,114.9609,220,118.9609,224,114.9609" style="stroke:#181818;stroke-width:1.0;"/><line style="stroke:#181818;stroke-width:1.0;" x1="74" x2="226" y1="114.9609" y2="114.9609"/><text fill="#000000" font-family="sans-serif" font-size="13" lengthAdjust="spacing" textLength="62" x="81" y="110.1045">initialize(s)</text><polygon fill="#181818" points="409,141.3125,419,145.3125,409,149.3125,413,145.3125" style="stroke:#181818;stroke-width:1.0;"/><line style="stroke:#181818;stroke-width:1.0;" x1="242" x2="415" y1="145.3125" y2="145.3125"/><text fill="#000000" font-family="sans-serif" font-size="13" lengthAdjust="spacing" textLength="160" x="249" y="140.4561">Controller(battery, direction)</text><polygon fill="#181818" points="780,171.6641,790,175.6641,780,179.6641,784,175.6641" style="stroke:#181818;stroke-width:1.0;"/><line style="stroke:#181818;stroke-width:1.0;" x1="431" x2="786" y1="175.6641" y2="175.6641"/><text fill="#000000" font-family="sans-serif" font-size="13" lengthAdjust="spacing" textLength="139" x="438" y="170.8076">Drone(battery, direction)</text><polygon fill="#181818" points="442,202.0156,432,206.0156,442,210.0156,438,206.0156" style="stroke:#181818;stroke-width:1.0;"/><line style="stroke:#181818;stroke-width:1.0;" x1="436" x2="791" y1="206.0156" y2="206.0156"/><text fill="#000000" font-family="sans-serif" font-size="13" lengthAdjust="spacing" textLength="32" x="448" y="201.1592">drone</text><polygon fill="#181818" points="644,232.3672,654,236.3672,644,240.3672,648,236.3672" style="stroke:#181818;stroke-width:1.0;"/><line style="stroke:#181818;stroke-width:1.0;" x1="431" x2="650" y1="236.3672" y2="236.3672"/><text fill="#000000" font-family="sans-serif" font-size="13" lengthAdjust="spacing" textLength="77" x="438" y="231.5107">Phase(drone)</text><path d="M10,251.3672 L83,251.3672 L83,259.7188 L73,269.7188 L10,269.7188 L10,251.3672 " fill="#EEEEEE" style="stroke:#000000;stroke-width:1.5;"/><rect fill="none" height="1403.8438" style="stroke:#000000;stroke-width:1.5;" width="922.5" x="10" y="251.3672"/><text fill="#000000" font-family="sans-serif" font-size="13" font-weight="bold" lengthAdjust="spacing" textLength="28" x="25" y="265.8623">loop</text><text fill="#000000" font-family="sans-serif" font-size="11" font-weight="bold" lengthAdjust="spacing" textLength="103" x="98" y="264.7861">[Until Drone Stops]</text><polygon fill="#181818" points="220,288.0703,230,292.0703,220,296.0703,224,292.0703" style="stroke:#181818;stroke-width:1.0;"/><line style="stroke:#181818;stroke-width:1.0;" x1="74" x2="226" y1="292.0703" y2="292.0703"/><text fill="#000000" font-family="sans-serif" font-size="13" lengthAdjust="spacing" textLength="83" x="81" y="287.2139">takeDecision()</text><polygon fill="#181818" points="409,318.4219,419,322.4219,409,326.4219,413,322.4219" style="stroke:#181818;stroke-width:1.0;"/><line style="stroke:#181818;stroke-width:1.0;" x1="242" x2="415" y1="322.4219" y2="322.4219"/><text fill="#000000" font-family="sans-serif" font-size="13" lengthAdjust="spacing" textLength="46" x="249" y="317.5654">decide()</text><polygon fill="#181818" points="644,348.7734,654,352.7734,644,356.7734,648,352.7734" style="stroke:#181818;stroke-width:1.0;"/><line style="stroke:#181818;stroke-width:1.0;" x1="431" x2="650" y1="352.7734" y2="352.7734"/><text fill="#000000" font-family="sans-serif" font-size="13" lengthAdjust="spacing" textLength="77" x="438" y="347.917">reachedEnd()</text><path d="M20,367.7734 L81,367.7734 L81,376.125 L71,386.125 L20,386.125 L20,367.7734 " fill="#EEEEEE" style="stroke:#000000;stroke-width:1.5;"/><rect fill="none" height="933.5703" style="stroke:#000000;stroke-width:1.5;" width="902.5" x="20" y="367.7734"/><text fill="#000000" font-family="sans-serif" font-size="13" font-weight="bold" lengthAdjust="spacing" textLength="16" x="35" y="382.2686">alt</text><text fill="#000000" font-family="sans-serif" font-size="11" font-weight="bold" lengthAdjust="spacing" textLength="95" x="96" y="381.1924">[Non-Final Phase]</text><path d="M378,393.125 L439,393.125 L439,401.4766 L429,411.4766 L378,411.4766 L378,393.125 " fill="#EEEEEE" style="stroke:#000000;stroke-width:1.5;"/><rect fill="none" height="259.6484" style="stroke:#000000;stroke-width:1.5;" width="411" x="378" y="393.125"/><text fill="#000000" font-family="sans-serif" font-size="13" font-weight="bold" lengthAdjust="spacing" textLength="16" x="393" y="407.6201">alt</text><text fill="#000000" font-family="sans-serif" font-size="11" font-weight="bold" lengthAdjust="spacing" textLength="143" x="454" y="406.5439">[Not at the End of a Phase]</text><polygon fill="#181818" points="442,429.8281,432,433.8281,442,437.8281,438,433.8281" style="stroke:#181818;stroke-width:1.0;"/><line style="stroke:#181818;stroke-width:1.0;" x1="436" x2="655" y1="433.8281" y2="433.8281"/><text fill="#000000" font-family="sans-serif" font-size="13" lengthAdjust="spacing" textLength="27" x="448" y="428.9717">false</text><line style="stroke:#000000;stroke-width:1.0;stroke-dasharray:2.0,2.0;" x1="378" x2="789" y1="442.8281" y2="442.8281"/><text fill="#000000" font-family="sans-serif" font-size="11" font-weight="bold" lengthAdjust="spacing" textLength="88" x="383" y="454.2471">[End of a Phase]</text><polygon fill="#181818" points="442,476.0156,432,480.0156,442,484.0156,438,480.0156" style="stroke:#181818;stroke-width:1.0;"/><line style="stroke:#181818;stroke-width:1.0;" x1="436" x2="655" y1="480.0156" y2="480.0156"/><text fill="#000000" font-family="sans-serif" font-size="13" lengthAdjust="spacing" textLength="22" x="448" y="475.1592">true</text><polygon fill="#181818" points="644,506.3672,654,510.3672,644,514.3672,648,510.3672" style="stroke:#181818;stroke-width:1.0;"/><line style="stroke:#181818;stroke-width:1.0;" x1="431" x2="650" y1="510.3672" y2="510.3672"/><text fill="#000000" font-family="sans-serif" font-size="13" lengthAdjust="spacing" textLength="46" x="438" y="505.5107">isFinal()</text><polygon fill="#181818" points="442,536.7188,432,540.7188,442,544.7188,438,540.7188" style="stroke:#181818;stroke-width:1.0;"/><line style="stroke:#181818;stroke-width:1.0;" x1="436" x2="655" y1="540.7188" y2="540.7188"/><text fill="#000000" font-family="sans-serif" font-size="13" lengthAdjust="spacing" textLength="27" x="448" y="535.8623">false</text><polygon fill="#181818" points="644,567.0703,654,571.0703,644,575.0703,648,571.0703" style="stroke:#181818;stroke-width:1.0;"/><line style="stroke:#181818;stroke-width:1.0;" x1="431" x2="650" y1="571.0703" y2="571.0703"/><text fill="#000000" font-family="sans-serif" font-size="13" lengthAdjust="spacing" textLength="90" x="438" y="566.2139">getNextPhase()</text><line style="stroke:#181818;stroke-width:1.0;" x1="666" x2="708" y1="601.4219" y2="601.4219"/><line style="stroke:#181818;stroke-width:1.0;" x1="708" x2="708" y1="601.4219" y2="614.4219"/><line style="stroke:#181818;stroke-width:1.0;" x1="667" x2="708" y1="614.4219" y2="614.4219"/><polygon fill="#181818" points="677,610.4219,667,614.4219,677,618.4219,673,614.4219" style="stroke:#181818;stroke-width:1.0;"/><text fill="#000000" font-family="sans-serif" font-size="13" lengthAdjust="spacing" textLength="104" x="673" y="596.5654">NextPhase(drone)</text><polygon fill="#181818" points="442,640.7734,432,644.7734,442,648.7734,438,644.7734" style="stroke:#181818;stroke-width:1.0;"/><line style="stroke:#181818;stroke-width:1.0;" x1="436" x2="655" y1="644.7734" y2="644.7734"/><text fill="#000000" font-family="sans-serif" font-size="13" lengthAdjust="spacing" textLength="62" x="448" y="639.917">nextPhase</text><polygon fill="#181818" points="644,678.125,654,682.125,644,686.125,648,682.125" style="stroke:#181818;stroke-width:1.0;"/><line style="stroke:#181818;stroke-width:1.0;" x1="431" x2="650" y1="682.125" y2="682.125"/><text fill="#000000" font-family="sans-serif" font-size="13" lengthAdjust="spacing" textLength="103" x="438" y="677.2686">getNextDecision()</text><polygon fill="#181818" points="780,757.5313,790,761.5313,780,765.5313,784,761.5313" style="stroke:#181818;stroke-width:1.0;"/><line style="stroke:#181818;stroke-width:1.0;" x1="666" x2="786" y1="761.5313" y2="761.5313"/><text fill="#000000" font-family="sans-serif" font-size="13" lengthAdjust="spacing" textLength="21" x="673" y="707.6201">fly()</text><text fill="#000000" font-family="sans-serif" font-size="13" lengthAdjust="spacing" textLength="85" x="673" y="723.9717">echo(direction)</text><text fill="#000000" font-family="sans-serif" font-size="13" lengthAdjust="spacing" textLength="102" x="673" y="740.3232">heading(direction)</text><text fill="#000000" font-family="sans-serif" font-size="13" lengthAdjust="spacing" textLength="36" x="673" y="756.6748">scan()</text><polygon fill="#181818" points="869,787.8828,879,791.8828,869,795.8828,873,791.8828" style="stroke:#181818;stroke-width:1.0;"/><line style="stroke:#181818;stroke-width:1.0;" x1="802" x2="875" y1="791.8828" y2="791.8828"/><text fill="#000000" font-family="sans-serif" font-size="13" lengthAdjust="spacing" textLength="45" x="809" y="787.0264">Action()</text><polygon fill="#181818" points="813,818.2344,803,822.2344,813,826.2344,809,822.2344" style="stroke:#181818;stroke-width:1.0;"/><line style="stroke:#181818;stroke-width:1.0;" x1="807" x2="880" y1="822.2344" y2="822.2344"/><text fill="#000000" font-family="sans-serif" font-size="13" lengthAdjust="spacing" textLength="55" x="819" y="817.3779">actionObj</text><polygon fill="#181818" points="677,848.5859,667,852.5859,677,856.5859,673,852.5859" style="stroke:#181818;stroke-width:1.0;"/><line style="stroke:#181818;stroke-width:1.0;" x1="671" x2="791" y1="852.5859" y2="852.5859"/><text fill="#000000" font-family="sans-serif" font-size="13" lengthAdjust="spacing" textLength="55" x="683" y="847.7295">actionObj</text><polygon fill="#181818" points="442,878.9375,432,882.9375,442,886.9375,438,882.9375" style="stroke:#181818;stroke-width:1.0;"/><line style="stroke:#181818;stroke-width:1.0;" x1="436" x2="655" y1="882.9375" y2="882.9375"/><text fill="#000000" font-family="sans-serif" font-size="13" lengthAdjust="spacing" textLength="55" x="448" y="878.0811">actionObj</text><polygon fill="#181818" points="253,909.2891,243,913.2891,253,917.2891,249,913.2891" style="stroke:#181818;stroke-width:1.0;"/><line style="stroke:#181818;stroke-width:1.0;" x1="247" x2="420" y1="913.2891" y2="913.2891"/><text fill="#000000" font-family="sans-serif" font-size="13" lengthAdjust="spacing" textLength="55" x="259" y="908.4326">actionObj</text><polygon fill="#181818" points="869,939.6406,879,943.6406,869,947.6406,873,943.6406" style="stroke:#181818;stroke-width:1.0;"/><line style="stroke:#181818;stroke-width:1.0;" x1="242" x2="875" y1="943.6406" y2="943.6406"/><text fill="#000000" font-family="sans-serif" font-size="13" lengthAdjust="spacing" textLength="113" x="249" y="938.7842">translate(actionObj)</text><polygon fill="#181818" points="253,969.9922,243,973.9922,253,977.9922,249,973.9922" style="stroke:#181818;stroke-width:1.0;"/><line style="stroke:#181818;stroke-width:1.0;" x1="247" x2="885" y1="973.9922" y2="973.9922"/><text fill="#000000" font-family="sans-serif" font-size="13" lengthAdjust="spacing" textLength="71" x="259" y="969.1357">JSONAction</text><polygon fill="#181818" points="85,1000.3438,75,1004.3438,85,1008.3438,81,1004.3438" style="stroke:#181818;stroke-width:1.0;"/><line style="stroke:#181818;stroke-width:1.0;" x1="79" x2="231" y1="1004.3438" y2="1004.3438"/><text fill="#000000" font-family="sans-serif" font-size="13" lengthAdjust="spacing" textLength="68" x="91" y="999.4873">JSONString</text><line style="stroke:#000000;stroke-width:1.0;stroke-dasharray:2.0,2.0;" x1="20" x2="922.5" y1="1013.3438" y2="1013.3438"/><text fill="#000000" font-family="sans-serif" font-size="11" font-weight="bold" lengthAdjust="spacing" textLength="195" x="25" y="1024.7627">[End of a Final Phase (Drone Stops)]</text><polygon fill="#181818" points="442,1046.5313,432,1050.5313,442,1054.5313,438,1050.5313" style="stroke:#181818;stroke-width:1.0;"/><line style="stroke:#181818;stroke-width:1.0;" x1="436" x2="655" y1="1050.5313" y2="1050.5313"/><text fill="#000000" font-family="sans-serif" font-size="13" lengthAdjust="spacing" textLength="22" x="448" y="1045.6748">true</text><polygon fill="#181818" points="644,1076.8828,654,1080.8828,644,1084.8828,648,1080.8828" style="stroke:#181818;stroke-width:1.0;"/><line style="stroke:#181818;stroke-width:1.0;" x1="431" x2="650" y1="1080.8828" y2="1080.8828"/><text fill="#000000" font-family="sans-serif" font-size="13" lengthAdjust="spacing" textLength="46" x="438" y="1076.0264">isFinal()</text><polygon fill="#181818" points="442,1107.2344,432,1111.2344,442,1115.2344,438,1111.2344" style="stroke:#181818;stroke-width:1.0;"/><line style="stroke:#181818;stroke-width:1.0;" x1="436" x2="655" y1="1111.2344" y2="1111.2344"/><text fill="#000000" font-family="sans-serif" font-size="13" lengthAdjust="spacing" textLength="22" x="448" y="1106.3779">true</text><polygon fill="#181818" points="869,1137.5859,879,1141.5859,869,1145.5859,873,1141.5859" style="stroke:#181818;stroke-width:1.0;"/><line style="stroke:#181818;stroke-width:1.0;" x1="431" x2="875" y1="1141.5859" y2="1141.5859"/><text fill="#000000" font-family="sans-serif" font-size="13" lengthAdjust="spacing" textLength="70" x="438" y="1136.7295">Action(stop)</text><polygon fill="#181818" points="442,1167.9375,432,1171.9375,442,1175.9375,438,1171.9375" style="stroke:#181818;stroke-width:1.0;"/><line style="stroke:#181818;stroke-width:1.0;" x1="436" x2="880" y1="1171.9375" y2="1171.9375"/><text fill="#000000" font-family="sans-serif" font-size="13" lengthAdjust="spacing" textLength="62" x="448" y="1167.0811">stopAction</text><polygon fill="#181818" points="253,1198.2891,243,1202.2891,253,1206.2891,249,1202.2891" style="stroke:#181818;stroke-width:1.0;"/><line style="stroke:#181818;stroke-width:1.0;" x1="247" x2="420" y1="1202.2891" y2="1202.2891"/><text fill="#000000" font-family="sans-serif" font-size="13" lengthAdjust="spacing" textLength="62" x="259" y="1197.4326">stopAction</text><polygon fill="#181818" points="869,1228.6406,879,1232.6406,869,1236.6406,873,1232.6406" style="stroke:#181818;stroke-width:1.0;"/><line style="stroke:#181818;stroke-width:1.0;" x1="242" x2="875" y1="1232.6406" y2="1232.6406"/><text fill="#000000" font-family="sans-serif" font-size="13" lengthAdjust="spacing" textLength="120" x="249" y="1227.7842">translate(stopAction)</text><polygon fill="#181818" points="253,1258.9922,243,1262.9922,253,1266.9922,249,1262.9922" style="stroke:#181818;stroke-width:1.0;"/><line style="stroke:#181818;stroke-width:1.0;" x1="247" x2="885" y1="1262.9922" y2="1262.9922"/><text fill="#000000" font-family="sans-serif" font-size="13" lengthAdjust="spacing" textLength="71" x="259" y="1258.1357">JSONAction</text><polygon fill="#181818" points="85,1289.3438,75,1293.3438,85,1297.3438,81,1293.3438" style="stroke:#181818;stroke-width:1.0;"/><line style="stroke:#181818;stroke-width:1.0;" x1="79" x2="231" y1="1293.3438" y2="1293.3438"/><text fill="#000000" font-family="sans-serif" font-size="13" lengthAdjust="spacing" textLength="68" x="91" y="1288.4873">JSONString</text><polygon fill="#181818" points="220,1326.6953,230,1330.6953,220,1334.6953,224,1330.6953" style="stroke:#181818;stroke-width:1.0;"/><line style="stroke:#181818;stroke-width:1.0;" x1="74" x2="226" y1="1330.6953" y2="1330.6953"/><text fill="#000000" font-family="sans-serif" font-size="13" lengthAdjust="spacing" textLength="134" x="81" y="1325.8389">acknowledgeResults(s)</text><polygon fill="#181818" points="409,1357.0469,419,1361.0469,409,1365.0469,413,1361.0469" style="stroke:#181818;stroke-width:1.0;"/><line style="stroke:#181818;stroke-width:1.0;" x1="242" x2="415" y1="1361.0469" y2="1361.0469"/><text fill="#000000" font-family="sans-serif" font-size="13" lengthAdjust="spacing" textLength="90" x="249" y="1356.1904">react(response)</text><polygon fill="#181818" points="557,1387.3984,567,1391.3984,557,1395.3984,561,1391.3984" style="stroke:#181818;stroke-width:1.0;"/><line style="stroke:#181818;stroke-width:1.0;" x1="431" x2="563" y1="1391.3984" y2="1391.3984"/><text fill="#000000" font-family="sans-serif" font-size="13" lengthAdjust="spacing" textLength="119" x="438" y="1386.542">Response(response)</text><polygon fill="#181818" points="442,1417.75,432,1421.75,442,1425.75,438,1421.75" style="stroke:#181818;stroke-width:1.0;"/><line style="stroke:#181818;stroke-width:1.0;" x1="436" x2="568" y1="1421.75" y2="1421.75"/><text fill="#000000" font-family="sans-serif" font-size="13" lengthAdjust="spacing" textLength="73" x="448" y="1416.8936">responseObj</text><polygon fill="#181818" points="644,1448.1016,654,1452.1016,644,1456.1016,648,1452.1016" style="stroke:#181818;stroke-width:1.0;"/><line style="stroke:#181818;stroke-width:1.0;" x1="431" x2="650" y1="1452.1016" y2="1452.1016"/><text fill="#000000" font-family="sans-serif" font-size="13" lengthAdjust="spacing" textLength="110" x="438" y="1447.2451">react(responseObj)</text><polygon fill="#181818" points="590,1478.4531,580,1482.4531,590,1486.4531,586,1482.4531" style="stroke:#181818;stroke-width:1.0;"/><line style="stroke:#181818;stroke-width:1.0;" x1="584" x2="655" y1="1482.4531" y2="1482.4531"/><text fill="#000000" font-family="sans-serif" font-size="13" lengthAdjust="spacing" textLength="53" x="596" y="1477.5967">getCost()</text><polygon fill="#181818" points="644,1508.8047,654,1512.8047,644,1516.8047,648,1512.8047" style="stroke:#181818;stroke-width:1.0;"/><line style="stroke:#181818;stroke-width:1.0;" x1="579" x2="650" y1="1512.8047" y2="1512.8047"/><text fill="#000000" font-family="sans-serif" font-size="13" lengthAdjust="spacing" textLength="25" x="586" y="1507.9482">cost</text><polygon fill="#181818" points="785,1539.1563,795,1543.1563,785,1547.1563,789,1543.1563" style="stroke:#181818;stroke-width:1.0;"/><line style="stroke:#181818;stroke-width:1.0;" x1="666" x2="791" y1="1543.1563" y2="1543.1563"/><text fill="#000000" font-family="sans-serif" font-size="13" lengthAdjust="spacing" textLength="96" x="673" y="1538.2998">useBattery(cost)</text><polygon fill="#181818" points="590,1569.5078,580,1573.5078,590,1577.5078,586,1573.5078" style="stroke:#181818;stroke-width:1.0;"/><line style="stroke:#181818;stroke-width:1.0;" x1="584" x2="655" y1="1573.5078" y2="1573.5078"/><text fill="#000000" font-family="sans-serif" font-size="13" lengthAdjust="spacing" textLength="53" x="596" y="1568.6514">getData()</text><polygon fill="#181818" points="644,1599.8594,654,1603.8594,644,1607.8594,648,1603.8594" style="stroke:#181818;stroke-width:1.0;"/><line style="stroke:#181818;stroke-width:1.0;" x1="574" x2="650" y1="1603.8594" y2="1603.8594"/><text fill="#000000" font-family="sans-serif" font-size="13" lengthAdjust="spacing" textLength="25" x="581" y="1599.0029">data</text><line style="stroke:#181818;stroke-width:1.0;" x1="666" x2="708" y1="1634.2109" y2="1634.2109"/><line style="stroke:#181818;stroke-width:1.0;" x1="708" x2="708" y1="1634.2109" y2="1647.2109"/><line style="stroke:#181818;stroke-width:1.0;" x1="667" x2="708" y1="1647.2109" y2="1647.2109"/><polygon fill="#181818" points="677,1643.2109,667,1647.2109,677,1651.2109,673,1647.2109" style="stroke:#181818;stroke-width:1.0;"/><text fill="#000000" font-family="sans-serif" font-size="13" lengthAdjust="spacing" textLength="76" x="673" y="1629.3545">Update State</text><polygon fill="#181818" points="220,1680.5625,230,1684.5625,220,1688.5625,224,1684.5625" style="stroke:#181818;stroke-width:1.0;"/><line style="stroke:#181818;stroke-width:1.0;" x1="74" x2="226" y1="1684.5625" y2="1684.5625"/><text fill="#000000" font-family="sans-serif" font-size="13" lengthAdjust="spacing" textLength="110" x="81" y="1679.7061">deliverFinalReport()</text><polygon fill="#181818" points="409,1710.9141,419,1714.9141,409,1718.9141,413,1714.9141" style="stroke:#181818;stroke-width:1.0;"/><line style="stroke:#181818;stroke-width:1.0;" x1="242" x2="415" y1="1714.9141" y2="1714.9141"/><text fill="#000000" font-family="sans-serif" font-size="13" lengthAdjust="spacing" textLength="96" x="249" y="1710.0576">generateReport()</text><polygon fill="#181818" points="253,1741.2656,243,1745.2656,253,1749.2656,249,1745.2656" style="stroke:#181818;stroke-width:1.0;"/><line style="stroke:#181818;stroke-width:1.0;" x1="247" x2="425" y1="1745.2656" y2="1745.2656"/><text fill="#000000" font-family="sans-serif" font-size="13" lengthAdjust="spacing" textLength="33" x="259" y="1740.4092">report</text><polygon fill="#181818" points="85,1771.6172,75,1775.6172,85,1779.6172,81,1775.6172" style="stroke:#181818;stroke-width:1.0;"/><line style="stroke:#181818;stroke-width:1.0;" x1="79" x2="231" y1="1775.6172" y2="1775.6172"/><text fill="#000000" font-family="sans-serif" font-size="13" lengthAdjust="spacing" textLength="33" x="91" y="1770.7607">report</text><!--MD5=[61805d202832f50f66a4c3c614569876]
@startuml High Level Sequence Diagram

actor GameEngine
participant Explorer
participant Controller
participant Response
participant Phase
participant Drone
participant Action

GameEngine -> Explorer: initialize(s)
activate Explorer
Explorer -> Controller: Controller(battery, direction)
activate Controller
Controller -> Drone: Drone(battery, direction)
activate Drone
Drone -> Controller: drone
Controller -> Phase: Phase(drone)
activate Phase
loop Until Drone Stops
    GameEngine -> Explorer: takeDecision()
    Explorer -> Controller: decide()
    Controller -> Phase: reachedEnd()
    alt Non-Final Phase
        alt Not at the End of a Phase
            Phase -> Controller: false
        else End of a Phase
            Phase -> Controller: true
            Controller -> Phase: isFinal()
            Phase -> Controller: false
            Controller -> Phase: getNextPhase()
            Phase -> Phase: NextPhase(drone)
            Phase -> Controller: nextPhase
        end
        Controller -> Phase: getNextDecision()
        Phase -> Drone: fly()\necho(direction)\nheading(direction)\nscan()
        Drone -> Action: Action()
        activate Action
        Action -> Drone: actionObj
        Drone -> Phase: actionObj
        Phase -> Controller: actionObj
        Controller -> Explorer: actionObj
        Explorer -> Action: translate(actionObj)
        Action -> Explorer: JSONAction
        deactivate Action
        Explorer -> GameEngine: JSONString
    else End of a Final Phase (Drone Stops)
        Phase -> Controller: true
        Controller -> Phase: isFinal()
        Phase -> Controller: true
        Controller -> Action: Action(stop)
        activate Action
        Action -> Controller: stopAction
        Controller -> Explorer: stopAction
        Explorer -> Action: translate(stopAction)
        Action -> Explorer: JSONAction
        deactivate Action
        Explorer -> GameEngine: JSONString
    end
    GameEngine -> Explorer: acknowledgeResults(s)
    Explorer -> Controller: react(response)
    Controller -> Response: Response(response)
    activate Response
    Response -> Controller: responseObj
    Controller -> Phase: react(responseObj)
    Phase -> Response: getCost()
    Response -> Phase: cost
    Phase -> Drone: useBattery(cost)
    deactivate Drone
    Phase -> Response: getData()
    Response -> Phase: data
    deactivate Response
    Phase -> Phase: Update State
end
deactivate Phase 
GameEngine -> Explorer: deliverFinalReport()
Explorer -> Controller: generateReport()
Controller -> Explorer: report
deactivate Controller
Explorer -> GameEngine: report

@enduml

PlantUML version 1.2022.7(Mon Aug 22 13:01:30 EDT 2022)
(GPL source distribution)
Java Runtime: Java(TM) SE Runtime Environment
JVM: Java HotSpot(TM) 64-Bit Server VM
Default Encoding: UTF-8
Language: en
Country: CA
--></g></svg>